<svg width="60" height="60" viewBox="0 0 60 60" fill="none" xmlns="http://www.w3.org/2000/svg">
<path d="M30.2869 23.72C31.3749 23.72 32.2443 24.0187 32.8949 24.616C33.5563 25.2133 33.8869 26.0293 33.8869 27.064C33.8869 28.1413 33.5456 28.952 32.8629 29.496C32.1803 30.04 31.2736 30.312 30.1429 30.312L30.0789 31.576H28.4949L28.4149 29.064H28.9429C29.9776 29.064 30.7669 28.9253 31.3109 28.648C31.8656 28.3707 32.1429 27.8427 32.1429 27.064C32.1429 26.4987 31.9776 26.056 31.6469 25.736C31.3269 25.416 30.8789 25.256 30.3029 25.256C29.7269 25.256 29.2736 25.4107 28.9429 25.72C28.6123 26.0293 28.4469 26.4613 28.4469 27.016H26.7349C26.7349 26.376 26.8789 25.8053 27.1669 25.304C27.4549 24.8027 27.8656 24.4133 28.3989 24.136C28.9429 23.8587 29.5723 23.72 30.2869 23.72ZM29.2629 35.112C28.9323 35.112 28.6549 35 28.4309 34.776C28.2069 34.552 28.0949 34.2747 28.0949 33.944C28.0949 33.6133 28.2069 33.336 28.4309 33.112C28.6549 32.888 28.9323 32.776 29.2629 32.776C29.5829 32.776 29.8549 32.888 30.0789 33.112C30.3029 33.336 30.4149 33.6133 30.4149 33.944C30.4149 34.2747 30.3029 34.552 30.0789 34.776C29.8549 35 29.5829 35.112 29.2629 35.112Z" fill="white"/>
<defs>

</defs>
</svg>
