<svg width="17" height="15" viewBox="0 0 17 15" fill="none" xmlns="http://www.w3.org/2000/svg">
<path d="M0 0.572602C0 0.885108 0.250471 1.15237 0.545255 1.15237H3.03457L4.21307 9.52948C4.36801 10.6128 4.92018 11.2919 5.98837 11.2919H14.5842C14.8712 11.2919 15.1216 11.0477 15.1216 10.7199C15.1216 10.3918 14.8712 10.1477 14.5842 10.1477H6.11345C5.69359 10.1477 5.43589 9.84231 5.36958 9.37713L5.25173 8.57601H14.5987C15.6741 8.57601 16.2266 7.88915 16.3812 6.79831L16.9705 2.7621C16.9861 2.66625 16.996 2.56949 17 2.47238C17 2.10616 16.7348 1.8542 16.3297 1.8542H4.30893L4.16153 0.885433C4.088 0.297857 3.88184 0 3.13074 0H0.54494C0.250471 0 0 0.267258 0 0.572602ZM5.36989 13.7639C5.36989 14.4583 5.90038 15 6.5704 15C6.72746 15.0013 6.88321 14.9703 7.02857 14.9086C7.17394 14.847 7.306 14.756 7.41706 14.6409C7.52813 14.5259 7.61597 14.3891 7.67548 14.2385C7.73499 14.088 7.76497 13.9266 7.76367 13.7639C7.76434 13.6014 7.73393 13.4404 7.67419 13.2901C7.61446 13.1398 7.52659 13.0033 7.41565 12.8884C7.30471 12.7735 7.1729 12.6825 7.02783 12.6206C6.88275 12.5587 6.72729 12.5272 6.5704 12.5279C5.90038 12.5279 5.36989 13.0774 5.36989 13.7639ZM12.2568 13.7639C12.2568 14.4583 12.7945 15 13.4573 15C14.1276 15 14.6578 14.4583 14.6578 13.7639C14.6578 13.0771 14.1276 12.5279 13.4573 12.5279C12.7945 12.5279 12.2568 13.0774 12.2568 13.7639Z" fill="#863AFF"/>
<path d="M0 0.572602C0 0.885108 0.250471 1.15237 0.545255 1.15237H3.03457L4.21307 9.52948C4.36801 10.6128 4.92018 11.2919 5.98837 11.2919H14.5842C14.8712 11.2919 15.1216 11.0477 15.1216 10.7199C15.1216 10.3918 14.8712 10.1477 14.5842 10.1477H6.11345C5.69359 10.1477 5.43589 9.84231 5.36958 9.37713L5.25173 8.57601H14.5987C15.6741 8.57601 16.2266 7.88915 16.3812 6.79831L16.9705 2.7621C16.9861 2.66625 16.996 2.56949 17 2.47238C17 2.10616 16.7348 1.8542 16.3297 1.8542H4.30893L4.16153 0.885433C4.088 0.297857 3.88184 0 3.13074 0H0.54494C0.250471 0 0 0.267258 0 0.572602ZM5.36989 13.7639C5.36989 14.4583 5.90038 15 6.5704 15C6.72746 15.0013 6.88321 14.9703 7.02857 14.9086C7.17394 14.847 7.306 14.756 7.41706 14.6409C7.52813 14.5259 7.61597 14.3891 7.67548 14.2385C7.73499 14.088 7.76497 13.9266 7.76367 13.7639C7.76434 13.6014 7.73393 13.4404 7.67419 13.2901C7.61446 13.1398 7.52659 13.0033 7.41565 12.8884C7.30471 12.7735 7.1729 12.6825 7.02783 12.6206C6.88275 12.5587 6.72729 12.5272 6.5704 12.5279C5.90038 12.5279 5.36989 13.0774 5.36989 13.7639ZM12.2568 13.7639C12.2568 14.4583 12.7945 15 13.4573 15C14.1276 15 14.6578 14.4583 14.6578 13.7639C14.6578 13.0771 14.1276 12.5279 13.4573 12.5279C12.7945 12.5279 12.2568 13.0774 12.2568 13.7639Z" fill="url(#paint0_linear_1210_1085)" fill-opacity="0.5" style="mix-blend-mode:overlay"/>
<defs>
<linearGradient id="paint0_linear_1210_1085" x1="8.5" y1="0" x2="8.5" y2="15" gradientUnits="userSpaceOnUse">
<stop stop-color="white"/>
<stop offset="1" stop-color="white" stop-opacity="0"/>
</linearGradient>
</defs>
</svg>
