<svg width="16" height="13" viewBox="0 0 16 13" fill="none" xmlns="http://www.w3.org/2000/svg">
<path d="M5.63611 9.78637H13.7263C13.9964 9.78637 14.2321 9.57478 14.2321 9.2904C14.2321 9.00603 13.9964 8.79444 13.7263 8.79444H5.75384C5.35867 8.79444 5.11613 8.52982 5.05372 8.12667L4.9428 7.43238H13.7399C14.7521 7.43238 15.2721 6.83711 15.4176 5.89174L15.9722 2.39376C15.9869 2.3107 15.9962 2.22684 16 2.14268C16 1.8253 15.7504 1.60694 15.3691 1.60694H4.04866L3.91674 0.767359C3.84752 0.258137 3.65349 0 2.94657 0H0.512885C0.235738 0 0 0.2319 0 0.496526C0 0.767359 0.235738 0.998977 0.513181 0.998977H2.85607L3.96525 8.25898C4.11107 9.19787 4.63075 9.78637 5.63611 9.78637ZM14.8213 2.60535L14.3297 5.77268C14.2741 6.1826 14.0455 6.43397 13.6364 6.43397L4.79077 6.44045L4.20128 2.60535H14.8213ZM6.1839 13C6.33173 13.0011 6.47832 12.9742 6.61513 12.9208C6.75194 12.8674 6.87623 12.7885 6.98076 12.6888C7.0853 12.5891 7.16798 12.4706 7.22398 12.3401C7.27999 12.2096 7.30821 12.0698 7.30698 11.9288C7.30761 11.7879 7.27899 11.6484 7.22277 11.5181C7.16655 11.3879 7.08385 11.2696 6.97944 11.17C6.87502 11.0704 6.75097 10.9915 6.61443 10.9379C6.47789 10.8843 6.33156 10.857 6.1839 10.8576C5.5533 10.8576 5.05402 11.3338 5.05402 11.9288C5.05402 12.5305 5.5533 13 6.1839 13ZM12.6657 13C13.2966 13 13.7955 12.5305 13.7955 11.9288C13.7955 11.3335 13.2966 10.8576 12.6657 10.8576C12.0419 10.8576 11.5358 11.3338 11.5358 11.9288C11.5358 12.5305 12.0419 13 12.6657 13Z" fill="#F8F8F8"/>
</svg>