<svg width="24" height="25" viewBox="0 0 24 25" fill="none" xmlns="http://www.w3.org/2000/svg">
<path fill-rule="evenodd" clip-rule="evenodd" d="M12.0624 0H11.9376C10.8588 0 9.96 5.38596e-08 9.2472 0.0963856C8.4936 0.19759 7.8132 0.421687 7.2672 0.96988C6.72 1.51928 6.4968 2.20241 6.396 2.95783C6.3276 3.47229 6.3072 4.7 6.3024 5.75301C3.876 5.83374 2.418 6.11807 1.4064 7.13494C-1.43051e-07 8.54578 0 10.8181 0 15.3614C0 19.9048 -1.43051e-07 22.1771 1.4064 23.588C2.8116 25 5.0748 25 9.6 25H14.4C18.9252 25 21.1884 25 22.5936 23.588C24 22.1771 24 19.9048 24 15.3614C24 10.8181 24 8.54578 22.5936 7.13494C21.582 6.11807 20.124 5.83373 17.6976 5.75422C17.6928 4.7 17.6736 3.47229 17.604 2.95904C17.5032 2.20241 17.28 1.51928 16.7328 0.971084C16.1868 0.421687 15.5064 0.19759 14.7528 0.0963856C14.04 5.38596e-08 13.14 0 12.0624 0ZM15.8976 5.7253C15.8916 4.70482 15.8748 3.60723 15.8208 3.1988C15.7452 2.64337 15.6168 2.40482 15.4608 2.24819C15.3048 2.09157 15.0672 1.96265 14.5128 1.88675C13.9344 1.80964 13.1568 1.80723 12 1.80723C10.8432 1.80723 10.0656 1.80964 9.486 1.88795C8.9328 1.96265 8.6952 2.09157 8.5392 2.2494C8.3832 2.40602 8.2548 2.64337 8.1792 3.1988C8.1252 3.60843 8.1072 4.70482 8.1024 5.7253C8.5716 5.72289 9.072 5.72289 9.6 5.72289H14.4C14.9292 5.72289 15.4284 5.72289 15.8976 5.7253ZM12 9.63855C12.2387 9.63855 12.4676 9.73376 12.6364 9.90322C12.8052 10.0727 12.9 10.3025 12.9 10.5422V10.5542C14.2068 10.8843 15.3 11.9193 15.3 13.353C15.3 13.5927 15.2052 13.8225 15.0364 13.992C14.8676 14.1614 14.6387 14.2566 14.4 14.2566C14.1613 14.2566 13.9324 14.1614 13.7636 13.992C13.5948 13.8225 13.5 13.5927 13.5 13.353C13.5 12.8904 12.9888 12.2494 12 12.2494C11.0112 12.2494 10.5 12.8904 10.5 13.353C10.5 13.8157 11.0112 14.4578 12 14.4578C13.662 14.4578 15.3 15.6145 15.3 17.3699C15.3 18.8036 14.2068 19.8373 12.9 20.1687V20.1807C12.9 20.4204 12.8052 20.6502 12.6364 20.8197C12.4676 20.9891 12.2387 21.0843 12 21.0843C11.7613 21.0843 11.5324 20.9891 11.3636 20.8197C11.1948 20.6502 11.1 20.4204 11.1 20.1807V20.1687C9.7932 19.8386 8.7 18.8036 8.7 17.3699C8.7 17.1302 8.79482 16.9004 8.9636 16.7309C9.13239 16.5615 9.36131 16.4663 9.6 16.4663C9.8387 16.4663 10.0676 16.5615 10.2364 16.7309C10.4052 16.9004 10.5 17.1302 10.5 17.3699C10.5 17.8325 11.0112 18.4735 12 18.4735C12.9888 18.4735 13.5 17.8325 13.5 17.3699C13.5 16.9072 12.9888 16.2651 12 16.2651C10.338 16.2651 8.7 15.1084 8.7 13.353C8.7 11.9193 9.7932 10.8843 11.1 10.5542V10.5422C11.1 10.3025 11.1948 10.0727 11.3636 9.90322C11.5324 9.73376 11.7613 9.63855 12 9.63855Z" fill="#863AFF"/>
</svg>
