<svg width="36" height="36" viewBox="0 0 36 36" fill="none" xmlns="http://www.w3.org/2000/svg">
<path d="M22.5 6C24.8733 6 27.1934 6.70379 29.1668 8.02236C31.1402 9.34094 32.6783 11.2151 33.5865 13.4078C34.4948 15.6005 34.7324 18.0133 34.2694 20.3411C33.8064 22.6689 32.6635 24.8071 30.9853 26.4853C29.307 28.1635 27.1688 29.3064 24.8411 29.7694C22.5133 30.2324 20.1005 29.9948 17.9078 29.0866C15.7151 28.1783 13.8409 26.6402 12.5223 24.6668C11.2038 22.6935 10.5 20.3734 10.5 18C10.5 14.8174 11.7643 11.7652 14.0147 9.51472C16.2651 7.26428 19.3174 6 22.5 6ZM4.49997 18C4.5021 19.8594 5.08008 21.6725 6.15447 23.1901C7.22886 24.7076 8.74692 25.8552 10.5 26.475V29.61C7.93198 28.9388 5.65898 27.4352 4.0367 25.3344C2.41442 23.2336 1.53442 20.6543 1.53442 18C1.53442 15.3457 2.41442 12.7664 4.0367 10.6656C5.65898 8.56483 7.93198 7.06118 10.5 6.39V9.525C8.74692 10.1448 7.22886 11.2924 6.15447 12.8099C5.08008 14.3275 4.5021 16.1406 4.49997 18Z" fill="#9F9DA7"/>
</svg>
