<svg width="9" height="11" viewBox="0 0 9 11" fill="none" xmlns="http://www.w3.org/2000/svg">
<path d="M4.422 0.522278C4.10188 0.528723 3.872 0.591028 3.71946 0.702747L1.62903 1.82208L0.466723 3.40312C0.221801 3.78124 0.395824 4.51171 1.16067 4.04335L1.99856 2.93905C3.06204 2.02189 5.23196 2.44277 4.20286 4.28398C3.69797 5.3496 3.9343 5.86952 4.58528 6.08866L4.88176 5.09179C5.39524 3.93593 6.35344 3.72753 6.31477 2.79511L8.6179 2.96054L8.59641 0.552356L4.422 0.522278ZM3.25969 2.74355C2.88586 2.7371 2.51848 2.89179 2.25207 3.11523L1.41204 4.21952C1.64192 4.40214 1.87395 4.30331 2.10383 4.08202C2.37454 4.21952 2.58508 4.00683 2.75696 3.58144C2.82786 3.2914 2.93313 3.0873 3.25969 2.74355ZM1.54954 4.80605C1.54094 4.80605 1.5302 4.80605 1.52161 4.8082C1.45071 4.82323 1.36692 4.89843 1.31106 5.0703C1.25305 5.24218 1.24016 5.4871 1.29172 5.74921C1.34329 6.00917 1.45071 6.23046 1.57102 6.36796C1.68704 6.50331 1.79446 6.54198 1.86536 6.52695C1.9384 6.51405 2.02004 6.43671 2.0759 6.26698C2.13391 6.09511 2.14895 5.84804 2.09739 5.58808C2.04368 5.32597 1.93625 5.10468 1.81809 4.96933C1.71496 4.84902 1.62043 4.80605 1.54954 4.80605ZM3.32414 7.10058C3.15442 7.10273 2.94172 7.15644 2.73332 7.25741C2.49485 7.37558 2.30793 7.53886 2.20696 7.68925C2.10598 7.83749 2.09739 7.94921 2.12961 8.01581C2.16184 8.08027 2.25637 8.14257 2.43684 8.15116C2.61731 8.16191 2.86008 8.11249 3.09856 7.99433C3.33704 7.87616 3.52395 7.71503 3.62493 7.56464C3.7259 7.4164 3.7345 7.30253 3.70227 7.23808C3.67004 7.17148 3.57551 7.11132 3.39504 7.10273C3.37141 7.10058 3.34993 7.10058 3.32414 7.10058ZM1.22727 9.15448C1.12629 9.15663 1.03391 9.17167 0.952269 9.1953C0.769652 9.24902 0.664379 9.34569 0.630004 9.45956C0.593481 9.57558 0.630004 9.71308 0.752465 9.86132C0.877074 10.0074 1.08547 10.1471 1.34329 10.2244C1.59895 10.3017 1.84817 10.2996 2.03293 10.2437C2.2177 10.19 2.32297 10.0934 2.35735 9.97948C2.39172 9.86347 2.35735 9.72597 2.23274 9.57773C2.11028 9.43163 1.90188 9.29198 1.64407 9.21464C1.49797 9.17167 1.35618 9.15234 1.22727 9.15448Z" fill="#863AFF"/>
<path d="M4.422 0.522278C4.10188 0.528723 3.872 0.591028 3.71946 0.702747L1.62903 1.82208L0.466723 3.40312C0.221801 3.78124 0.395824 4.51171 1.16067 4.04335L1.99856 2.93905C3.06204 2.02189 5.23196 2.44277 4.20286 4.28398C3.69797 5.3496 3.9343 5.86952 4.58528 6.08866L4.88176 5.09179C5.39524 3.93593 6.35344 3.72753 6.31477 2.79511L8.6179 2.96054L8.59641 0.552356L4.422 0.522278ZM3.25969 2.74355C2.88586 2.7371 2.51848 2.89179 2.25207 3.11523L1.41204 4.21952C1.64192 4.40214 1.87395 4.30331 2.10383 4.08202C2.37454 4.21952 2.58508 4.00683 2.75696 3.58144C2.82786 3.2914 2.93313 3.0873 3.25969 2.74355ZM1.54954 4.80605C1.54094 4.80605 1.5302 4.80605 1.52161 4.8082C1.45071 4.82323 1.36692 4.89843 1.31106 5.0703C1.25305 5.24218 1.24016 5.4871 1.29172 5.74921C1.34329 6.00917 1.45071 6.23046 1.57102 6.36796C1.68704 6.50331 1.79446 6.54198 1.86536 6.52695C1.9384 6.51405 2.02004 6.43671 2.0759 6.26698C2.13391 6.09511 2.14895 5.84804 2.09739 5.58808C2.04368 5.32597 1.93625 5.10468 1.81809 4.96933C1.71496 4.84902 1.62043 4.80605 1.54954 4.80605ZM3.32414 7.10058C3.15442 7.10273 2.94172 7.15644 2.73332 7.25741C2.49485 7.37558 2.30793 7.53886 2.20696 7.68925C2.10598 7.83749 2.09739 7.94921 2.12961 8.01581C2.16184 8.08027 2.25637 8.14257 2.43684 8.15116C2.61731 8.16191 2.86008 8.11249 3.09856 7.99433C3.33704 7.87616 3.52395 7.71503 3.62493 7.56464C3.7259 7.4164 3.7345 7.30253 3.70227 7.23808C3.67004 7.17148 3.57551 7.11132 3.39504 7.10273C3.37141 7.10058 3.34993 7.10058 3.32414 7.10058ZM1.22727 9.15448C1.12629 9.15663 1.03391 9.17167 0.952269 9.1953C0.769652 9.24902 0.664379 9.34569 0.630004 9.45956C0.593481 9.57558 0.630004 9.71308 0.752465 9.86132C0.877074 10.0074 1.08547 10.1471 1.34329 10.2244C1.59895 10.3017 1.84817 10.2996 2.03293 10.2437C2.2177 10.19 2.32297 10.0934 2.35735 9.97948C2.39172 9.86347 2.35735 9.72597 2.23274 9.57773C2.11028 9.43163 1.90188 9.29198 1.64407 9.21464C1.49797 9.17167 1.35618 9.15234 1.22727 9.15448Z" fill="url(#paint0_linear_1745_197)" fill-opacity="0.5" style="mix-blend-mode:overlay"/>
<defs>
<linearGradient id="paint0_linear_1745_197" x1="4.49059" y1="0.522278" x2="4.49059" y2="10.2842" gradientUnits="userSpaceOnUse">
<stop stop-color="white"/>
<stop offset="1" stop-color="white" stop-opacity="0"/>
</linearGradient>
</defs>
</svg>
