<svg width="13" height="9" viewBox="0 0 13 9" fill="none" xmlns="http://www.w3.org/2000/svg">
<path d="M6.71312 0.41236C5.80922 0.410836 4.67679 0.696481 3.55961 1.27793C2.4442 1.85937 1.56009 2.62109 1.04111 3.36504C0.521872 4.10644 0.381462 4.79707 0.636892 5.28964C0.892575 5.77968 1.53902 6.06152 2.44521 6.06152C3.3514 6.06406 4.48383 5.77714 5.59847 5.19824C6.71566 4.61679 7.59926 3.85254 8.11722 3.11113C8.63773 2.36972 8.77484 1.6791 8.52094 1.18652C8.26449 0.696481 7.61957 0.41236 6.71312 0.41236ZM9.04652 2.19707C8.95765 2.58554 8.76468 2.98418 8.493 3.37265C7.91918 4.19277 6.98226 4.99257 5.80922 5.60195C4.63617 6.21386 3.44535 6.52109 2.44496 6.52109C1.97269 6.52109 1.53496 6.45 1.16603 6.30019L1.43492 6.81816C1.69086 7.31074 2.33552 7.59257 3.24222 7.59257C4.14867 7.59257 5.28109 7.3082 6.39574 6.72675C7.51293 6.14785 8.39652 5.38359 8.91449 4.63964C9.43246 3.89824 9.57465 3.20761 9.3182 2.71757L9.04652 2.19707ZM9.77777 2.62363C10.0621 3.30156 9.83363 4.12675 9.29027 4.90117C8.81039 5.58925 8.0766 6.25703 7.16761 6.81562C7.44945 6.84609 7.74398 6.86132 8.04359 6.86132C9.30043 6.86132 10.4379 6.59218 11.2403 6.17324C12.0452 5.75429 12.4869 5.20586 12.4869 4.65234C12.4869 4.09882 12.0452 3.55039 11.2403 3.13144C10.8315 2.91816 10.3338 2.74296 9.77777 2.62363ZM12.4869 5.79238C12.228 6.09453 11.8725 6.36113 11.4536 6.57949C10.5649 7.0416 9.36644 7.31836 8.04359 7.31836C7.50531 7.31836 6.98734 7.27265 6.50238 7.18632C5.91332 7.48339 5.32172 7.70429 4.75297 7.84902C4.78343 7.86679 4.8139 7.88203 4.84691 7.8998C5.64925 8.31875 6.78675 8.58789 8.04359 8.58789C9.30043 8.58789 10.4379 8.31875 11.2403 7.8998C12.0452 7.48086 12.4869 6.93242 12.4869 6.3789V5.79238Z" fill="#863AFF"/>
<path d="M6.71312 0.41236C5.80922 0.410836 4.67679 0.696481 3.55961 1.27793C2.4442 1.85937 1.56009 2.62109 1.04111 3.36504C0.521872 4.10644 0.381462 4.79707 0.636892 5.28964C0.892575 5.77968 1.53902 6.06152 2.44521 6.06152C3.3514 6.06406 4.48383 5.77714 5.59847 5.19824C6.71566 4.61679 7.59926 3.85254 8.11722 3.11113C8.63773 2.36972 8.77484 1.6791 8.52094 1.18652C8.26449 0.696481 7.61957 0.41236 6.71312 0.41236ZM9.04652 2.19707C8.95765 2.58554 8.76468 2.98418 8.493 3.37265C7.91918 4.19277 6.98226 4.99257 5.80922 5.60195C4.63617 6.21386 3.44535 6.52109 2.44496 6.52109C1.97269 6.52109 1.53496 6.45 1.16603 6.30019L1.43492 6.81816C1.69086 7.31074 2.33552 7.59257 3.24222 7.59257C4.14867 7.59257 5.28109 7.3082 6.39574 6.72675C7.51293 6.14785 8.39652 5.38359 8.91449 4.63964C9.43246 3.89824 9.57465 3.20761 9.3182 2.71757L9.04652 2.19707ZM9.77777 2.62363C10.0621 3.30156 9.83363 4.12675 9.29027 4.90117C8.81039 5.58925 8.0766 6.25703 7.16761 6.81562C7.44945 6.84609 7.74398 6.86132 8.04359 6.86132C9.30043 6.86132 10.4379 6.59218 11.2403 6.17324C12.0452 5.75429 12.4869 5.20586 12.4869 4.65234C12.4869 4.09882 12.0452 3.55039 11.2403 3.13144C10.8315 2.91816 10.3338 2.74296 9.77777 2.62363ZM12.4869 5.79238C12.228 6.09453 11.8725 6.36113 11.4536 6.57949C10.5649 7.0416 9.36644 7.31836 8.04359 7.31836C7.50531 7.31836 6.98734 7.27265 6.50238 7.18632C5.91332 7.48339 5.32172 7.70429 4.75297 7.84902C4.78343 7.86679 4.8139 7.88203 4.84691 7.8998C5.64925 8.31875 6.78675 8.58789 8.04359 8.58789C9.30043 8.58789 10.4379 8.31875 11.2403 7.8998C12.0452 7.48086 12.4869 6.93242 12.4869 6.3789V5.79238Z" fill="url(#paint0_linear_1745_195)" fill-opacity="0.5" style="mix-blend-mode:overlay"/>
<defs>
<linearGradient id="paint0_linear_1745_195" x1="6.49982" y1="0.412354" x2="6.49982" y2="8.58789" gradientUnits="userSpaceOnUse">
<stop stop-color="white"/>
<stop offset="1" stop-color="white" stop-opacity="0"/>
</linearGradient>
</defs>
</svg>
