<svg width="9" height="9" viewBox="0 0 9 9" fill="none" xmlns="http://www.w3.org/2000/svg">
<path d="M8.86813 8.23142C8.90994 8.27322 8.9431 8.32286 8.96573 8.37748C8.98835 8.4321 9 8.49065 9 8.54977C9 8.6089 8.98835 8.66744 8.96573 8.72207C8.9431 8.77669 8.90994 8.82632 8.86813 8.86813C8.82632 8.90994 8.77669 8.9431 8.72207 8.96573C8.66744 8.98835 8.6089 9 8.54977 9C8.49065 9 8.4321 8.98835 8.37748 8.96573C8.32286 8.9431 8.27322 8.90994 8.23142 8.86813L4.5 5.13615L0.768582 8.86813C0.684149 8.95257 0.569632 9 0.450225 9C0.330818 9 0.216301 8.95257 0.131868 8.86813C0.0474343 8.7837 2.3538e-09 8.66918 0 8.54977C-2.3538e-09 8.43037 0.0474343 8.31585 0.131868 8.23142L3.86385 4.5L0.131868 0.768582C0.0474343 0.684149 -8.89652e-10 0.569632 0 0.450225C8.89652e-10 0.330818 0.0474343 0.216301 0.131868 0.131868C0.216301 0.0474343 0.330818 8.89653e-10 0.450225 0C0.569632 -8.89652e-10 0.684149 0.0474343 0.768582 0.131868L4.5 3.86385L8.23142 0.131868C8.31585 0.0474343 8.43037 -2.3538e-09 8.54977 0C8.66918 2.3538e-09 8.7837 0.0474343 8.86813 0.131868C8.95257 0.216301 9 0.330818 9 0.450225C9 0.569632 8.95257 0.684149 8.86813 0.768582L5.13615 4.5L8.86813 8.23142Z" fill="#F8F8F8"/>
</svg>
