<svg width="10" height="11" viewBox="0 0 10 11" fill="none" xmlns="http://www.w3.org/2000/svg">
<path d="M4.47263 0.138466C4.6329 0.0477625 4.81481 0 5 0C5.18519 0 5.3671 0.0477625 5.52737 0.138466L9.47474 2.37261C9.63448 2.46302 9.7671 2.5929 9.85929 2.74922C9.95148 2.90555 10 3.08283 10 3.26328V7.73672C9.99992 7.91708 9.95135 8.09425 9.85916 8.25048C9.76697 8.40671 9.6344 8.53651 9.47474 8.62687L5.52737 10.8615C5.3671 10.9522 5.18519 11 5 11C4.81481 11 4.6329 10.9522 4.47263 10.8615L0.525263 8.62739C0.36552 8.53698 0.232901 8.4071 0.140708 8.25078C0.0485155 8.09445 -9.72879e-06 7.91717 1.46304e-09 7.73672V3.26328C8.25312e-05 3.08292 0.0486514 2.90575 0.14084 2.74952C0.233028 2.59329 0.365597 2.46349 0.525263 2.37312L4.47263 0.138466ZM1.44737 3.48917C1.40735 3.46646 1.36192 3.45447 1.31564 3.4544C1.26937 3.45434 1.2239 3.4662 1.18382 3.48879C1.14373 3.51139 1.11045 3.54392 1.08733 3.5831C1.0642 3.62228 1.05205 3.66673 1.05211 3.71196V7.14345C1.05219 7.32381 1.10076 7.50098 1.19295 7.65722C1.28513 7.81345 1.4177 7.94325 1.57737 8.03361L4.60421 9.74703C4.64419 9.76972 4.68958 9.78171 4.7358 9.7818C4.78203 9.78189 4.82746 9.77007 4.86753 9.74754C4.9076 9.725 4.94089 9.69255 4.96406 9.65344C4.98722 9.61433 4.99943 9.56994 4.99947 9.52475V6.09327C4.99939 5.9129 4.95082 5.73573 4.85863 5.5795C4.76645 5.42327 4.63388 5.29347 4.47421 5.20311L1.44737 3.48917ZM6.98263 2.16422C6.73105 2.02221 6.32263 2.02221 6.07105 2.16422C5.81947 2.30623 5.81947 2.53675 6.07105 2.67876C6.32263 2.82078 6.73105 2.82078 6.98263 2.67876C7.23421 2.53675 7.23421 2.30623 6.98263 2.16422ZM3.93 2.16422C3.67842 2.02221 3.27 2.02221 3.01842 2.16422C2.76684 2.30623 2.76684 2.53675 3.01842 2.67876C3.27 2.82078 3.67842 2.82078 3.93 2.67876C4.18211 2.53675 4.18211 2.30623 3.93 2.16422ZM7.62737 7.47842C7.94158 7.3009 8.19684 6.8692 8.19684 6.51365C8.19684 6.15861 7.94158 6.01454 7.62737 6.19206C7.31263 6.36958 7.05737 6.80179 7.05737 7.15683C7.05737 7.51186 7.31263 7.65593 7.62684 7.47842M2.03421 5.60291C2.28579 5.74544 2.49 5.63018 2.49 5.34564C2.49 5.06161 2.28579 4.71635 2.03421 4.57382C1.78263 4.43181 1.57842 4.54707 1.57842 4.83109C1.57842 5.11564 1.78263 5.46089 2.03421 5.60291ZM4.31316 8.43186C4.31316 8.71589 4.10842 8.83115 3.85684 8.68913C3.60526 8.54712 3.40105 8.20135 3.40105 7.91732C3.40105 7.63329 3.60526 7.51804 3.85684 7.66005C4.10842 7.80206 4.31316 8.14784 4.31316 8.43186ZM2.49 7.40381C2.49 7.68835 2.28579 7.80361 2.03421 7.66108C1.78263 7.51907 1.57842 7.17381 1.57842 6.88926C1.57842 6.60524 1.78263 6.48998 2.03421 6.63199C2.28579 6.77452 2.49 7.11978 2.49 7.40381ZM4.31263 6.37472C4.31263 6.65926 4.10842 6.77452 3.85684 6.63199C3.60474 6.49049 3.40105 6.14472 3.40105 5.86018C3.40105 5.57667 3.60474 5.46141 3.85684 5.60291C4.10842 5.74544 4.31263 6.09121 4.31263 6.37472Z" fill="#863AFF"/>
<path d="M4.47263 0.138466C4.6329 0.0477625 4.81481 0 5 0C5.18519 0 5.3671 0.0477625 5.52737 0.138466L9.47474 2.37261C9.63448 2.46302 9.7671 2.5929 9.85929 2.74922C9.95148 2.90555 10 3.08283 10 3.26328V7.73672C9.99992 7.91708 9.95135 8.09425 9.85916 8.25048C9.76697 8.40671 9.6344 8.53651 9.47474 8.62687L5.52737 10.8615C5.3671 10.9522 5.18519 11 5 11C4.81481 11 4.6329 10.9522 4.47263 10.8615L0.525263 8.62739C0.36552 8.53698 0.232901 8.4071 0.140708 8.25078C0.0485155 8.09445 -9.72879e-06 7.91717 1.46304e-09 7.73672V3.26328C8.25312e-05 3.08292 0.0486514 2.90575 0.14084 2.74952C0.233028 2.59329 0.365597 2.46349 0.525263 2.37312L4.47263 0.138466ZM1.44737 3.48917C1.40735 3.46646 1.36192 3.45447 1.31564 3.4544C1.26937 3.45434 1.2239 3.4662 1.18382 3.48879C1.14373 3.51139 1.11045 3.54392 1.08733 3.5831C1.0642 3.62228 1.05205 3.66673 1.05211 3.71196V7.14345C1.05219 7.32381 1.10076 7.50098 1.19295 7.65722C1.28513 7.81345 1.4177 7.94325 1.57737 8.03361L4.60421 9.74703C4.64419 9.76972 4.68958 9.78171 4.7358 9.7818C4.78203 9.78189 4.82746 9.77007 4.86753 9.74754C4.9076 9.725 4.94089 9.69255 4.96406 9.65344C4.98722 9.61433 4.99943 9.56994 4.99947 9.52475V6.09327C4.99939 5.9129 4.95082 5.73573 4.85863 5.5795C4.76645 5.42327 4.63388 5.29347 4.47421 5.20311L1.44737 3.48917ZM6.98263 2.16422C6.73105 2.02221 6.32263 2.02221 6.07105 2.16422C5.81947 2.30623 5.81947 2.53675 6.07105 2.67876C6.32263 2.82078 6.73105 2.82078 6.98263 2.67876C7.23421 2.53675 7.23421 2.30623 6.98263 2.16422ZM3.93 2.16422C3.67842 2.02221 3.27 2.02221 3.01842 2.16422C2.76684 2.30623 2.76684 2.53675 3.01842 2.67876C3.27 2.82078 3.67842 2.82078 3.93 2.67876C4.18211 2.53675 4.18211 2.30623 3.93 2.16422ZM7.62737 7.47842C7.94158 7.3009 8.19684 6.8692 8.19684 6.51365C8.19684 6.15861 7.94158 6.01454 7.62737 6.19206C7.31263 6.36958 7.05737 6.80179 7.05737 7.15683C7.05737 7.51186 7.31263 7.65593 7.62684 7.47842M2.03421 5.60291C2.28579 5.74544 2.49 5.63018 2.49 5.34564C2.49 5.06161 2.28579 4.71635 2.03421 4.57382C1.78263 4.43181 1.57842 4.54707 1.57842 4.83109C1.57842 5.11564 1.78263 5.46089 2.03421 5.60291ZM4.31316 8.43186C4.31316 8.71589 4.10842 8.83115 3.85684 8.68913C3.60526 8.54712 3.40105 8.20135 3.40105 7.91732C3.40105 7.63329 3.60526 7.51804 3.85684 7.66005C4.10842 7.80206 4.31316 8.14784 4.31316 8.43186ZM2.49 7.40381C2.49 7.68835 2.28579 7.80361 2.03421 7.66108C1.78263 7.51907 1.57842 7.17381 1.57842 6.88926C1.57842 6.60524 1.78263 6.48998 2.03421 6.63199C2.28579 6.77452 2.49 7.11978 2.49 7.40381ZM4.31263 6.37472C4.31263 6.65926 4.10842 6.77452 3.85684 6.63199C3.60474 6.49049 3.40105 6.14472 3.40105 5.86018C3.40105 5.57667 3.60474 5.46141 3.85684 5.60291C4.10842 5.74544 4.31263 6.09121 4.31263 6.37472Z" fill="url(#paint0_linear_1745_156)" fill-opacity="0.5" style="mix-blend-mode:overlay"/>
<defs>
<linearGradient id="paint0_linear_1745_156" x1="5" y1="11" x2="5" y2="0" gradientUnits="userSpaceOnUse">
<stop stop-color="white" stop-opacity="0"/>
<stop offset="1" stop-color="white"/>
</linearGradient>
</defs>
</svg>
