<svg width="30" height="22" viewBox="0 0 30 22" fill="none" xmlns="http://www.w3.org/2000/svg">
<path d="M25.4183 1.82833C23.5787 0.976058 21.587 0.35747 19.5122 6.3231e-05C19.4941 -0.000514947 19.476 0.00287778 19.4592 0.0100029C19.4425 0.0171281 19.4275 0.0278126 19.4154 0.0413027C19.1665 0.494934 18.876 1.08603 18.6824 1.53966C16.4818 1.20975 14.2438 1.20975 12.0432 1.53966C11.8496 1.07228 11.5591 0.494934 11.2963 0.0413027C11.2825 0.0138099 11.241 6.3231e-05 11.1995 6.3231e-05C9.1248 0.35747 7.1469 0.976058 5.29348 1.82833C5.27965 1.82833 5.26582 1.84208 5.25199 1.85583C1.48983 7.45061 0.452464 12.8942 0.964229 18.2828C0.964229 18.3103 0.978061 18.3378 1.00572 18.3515C3.49539 20.166 5.88824 21.2657 8.25342 21.9943C8.29491 22.0081 8.33641 21.9943 8.35024 21.9668C8.9035 21.2108 9.40143 20.4135 9.83021 19.5749C9.85787 19.52 9.83021 19.465 9.77488 19.4512C8.98649 19.1488 8.23959 18.7914 7.50652 18.379C7.45119 18.3515 7.45119 18.269 7.49269 18.2278C7.64483 18.1178 7.79698 17.9941 7.94913 17.8841C7.97679 17.8566 8.01828 17.8566 8.04595 17.8704C12.804 20.0286 17.9355 20.0286 22.6382 17.8704C22.6658 17.8566 22.7073 17.8566 22.735 17.8841C22.8871 18.0079 23.0393 18.1178 23.1914 18.2415C23.2467 18.2828 23.2467 18.3653 23.1776 18.3927C22.4583 18.8189 21.6976 19.1625 20.9092 19.465C20.8539 19.4787 20.8401 19.5474 20.8539 19.5887C21.2965 20.4272 21.7944 21.2245 22.3339 21.9806C22.3754 21.9943 22.4169 22.0081 22.4583 21.9943C24.8374 21.2657 27.2302 20.166 29.7199 18.3515C29.7475 18.3378 29.7614 18.3103 29.7614 18.2828C30.37 12.0557 28.7517 6.65332 25.4736 1.85583C25.4598 1.84208 25.4459 1.82833 25.4183 1.82833ZM10.5494 14.9974C9.1248 14.9974 7.9353 13.6915 7.9353 12.0832C7.9353 10.4748 9.09714 9.16891 10.5494 9.16891C12.0156 9.16891 13.1774 10.4886 13.1636 12.0832C13.1636 13.6915 12.0018 14.9974 10.5494 14.9974ZM20.19 14.9974C18.7653 14.9974 17.5758 13.6915 17.5758 12.0832C17.5758 10.4748 18.7377 9.16891 20.19 9.16891C21.6561 9.16891 22.818 10.4886 22.8041 12.0832C22.8041 13.6915 21.6561 14.9974 20.19 14.9974Z" fill="#6349FF"/>
</svg>
