<svg width="9" height="16" viewBox="0 0 9 16" fill="none" xmlns="http://www.w3.org/2000/svg">
<path d="M9 10.566C9 11.19 8.84241 11.778 8.52724 12.33C8.22373 12.87 7.76848 13.32 7.16148 13.68C6.56615 14.028 5.85992 14.232 5.0428 14.292V15.75H3.92218V14.274C2.75486 14.166 1.81518 13.806 1.10311 13.194C0.391051 12.57 0.0233463 11.73 0 10.674H2.62646C2.6965 11.538 3.1284 12.06 3.92218 12.24V8.802C3.08171 8.586 2.40467 8.37 1.89105 8.154C1.37743 7.938 0.933852 7.59 0.560311 7.11C0.18677 6.63 0 5.976 0 5.148C0 4.104 0.361868 3.252 1.0856 2.592C1.82101 1.932 2.76654 1.554 3.92218 1.458V0H5.0428V1.458C6.16342 1.554 7.05642 1.902 7.72179 2.502C8.39883 3.102 8.77821 3.93 8.85992 4.986H6.21595C6.18093 4.638 6.05837 4.338 5.84825 4.086C5.64981 3.822 5.38132 3.636 5.0428 3.528V6.93C5.91829 7.158 6.607 7.38 7.10895 7.596C7.62257 7.8 8.06615 8.142 8.43969 8.622C8.81323 9.09 9 9.738 9 10.566ZM2.55642 5.022C2.55642 5.418 2.67315 5.742 2.90661 5.994C3.14008 6.234 3.4786 6.432 3.92218 6.588V3.474C3.50195 3.534 3.16926 3.696 2.92412 3.96C2.67899 4.224 2.55642 4.578 2.55642 5.022ZM5.0428 12.276C5.48638 12.192 5.83074 12.006 6.07587 11.718C6.33268 11.43 6.46109 11.082 6.46109 10.674C6.46109 10.278 6.33852 9.96 6.09339 9.72C5.84825 9.48 5.49805 9.282 5.0428 9.126V12.276Z" fill="#863AFF"/>
<path d="M9 10.566C9 11.19 8.84241 11.778 8.52724 12.33C8.22373 12.87 7.76848 13.32 7.16148 13.68C6.56615 14.028 5.85992 14.232 5.0428 14.292V15.75H3.92218V14.274C2.75486 14.166 1.81518 13.806 1.10311 13.194C0.391051 12.57 0.0233463 11.73 0 10.674H2.62646C2.6965 11.538 3.1284 12.06 3.92218 12.24V8.802C3.08171 8.586 2.40467 8.37 1.89105 8.154C1.37743 7.938 0.933852 7.59 0.560311 7.11C0.18677 6.63 0 5.976 0 5.148C0 4.104 0.361868 3.252 1.0856 2.592C1.82101 1.932 2.76654 1.554 3.92218 1.458V0H5.0428V1.458C6.16342 1.554 7.05642 1.902 7.72179 2.502C8.39883 3.102 8.77821 3.93 8.85992 4.986H6.21595C6.18093 4.638 6.05837 4.338 5.84825 4.086C5.64981 3.822 5.38132 3.636 5.0428 3.528V6.93C5.91829 7.158 6.607 7.38 7.10895 7.596C7.62257 7.8 8.06615 8.142 8.43969 8.622C8.81323 9.09 9 9.738 9 10.566ZM2.55642 5.022C2.55642 5.418 2.67315 5.742 2.90661 5.994C3.14008 6.234 3.4786 6.432 3.92218 6.588V3.474C3.50195 3.534 3.16926 3.696 2.92412 3.96C2.67899 4.224 2.55642 4.578 2.55642 5.022ZM5.0428 12.276C5.48638 12.192 5.83074 12.006 6.07587 11.718C6.33268 11.43 6.46109 11.082 6.46109 10.674C6.46109 10.278 6.33852 9.96 6.09339 9.72C5.84825 9.48 5.49805 9.282 5.0428 9.126V12.276Z" fill="url(#paint0_linear_1557_349)" fill-opacity="0.5" style="mix-blend-mode:overlay"/>
<path d="M9 10.566C9 11.19 8.84241 11.778 8.52724 12.33C8.22373 12.87 7.76848 13.32 7.16148 13.68C6.56615 14.028 5.85992 14.232 5.0428 14.292V15.75H3.92218V14.274C2.75486 14.166 1.81518 13.806 1.10311 13.194C0.391051 12.57 0.0233463 11.73 0 10.674H2.62646C2.6965 11.538 3.1284 12.06 3.92218 12.24V8.802C3.08171 8.586 2.40467 8.37 1.89105 8.154C1.37743 7.938 0.933852 7.59 0.560311 7.11C0.18677 6.63 0 5.976 0 5.148C0 4.104 0.361868 3.252 1.0856 2.592C1.82101 1.932 2.76654 1.554 3.92218 1.458V0H5.0428V1.458C6.16342 1.554 7.05642 1.902 7.72179 2.502C8.39883 3.102 8.77821 3.93 8.85992 4.986H6.21595C6.18093 4.638 6.05837 4.338 5.84825 4.086C5.64981 3.822 5.38132 3.636 5.0428 3.528V6.93C5.91829 7.158 6.607 7.38 7.10895 7.596C7.62257 7.8 8.06615 8.142 8.43969 8.622C8.81323 9.09 9 9.738 9 10.566ZM2.55642 5.022C2.55642 5.418 2.67315 5.742 2.90661 5.994C3.14008 6.234 3.4786 6.432 3.92218 6.588V3.474C3.50195 3.534 3.16926 3.696 2.92412 3.96C2.67899 4.224 2.55642 4.578 2.55642 5.022ZM5.0428 12.276C5.48638 12.192 5.83074 12.006 6.07587 11.718C6.33268 11.43 6.46109 11.082 6.46109 10.674C6.46109 10.278 6.33852 9.96 6.09339 9.72C5.84825 9.48 5.49805 9.282 5.0428 9.126V12.276Z" fill="#863AFF"/>
<path d="M9 10.566C9 11.19 8.84241 11.778 8.52724 12.33C8.22373 12.87 7.76848 13.32 7.16148 13.68C6.56615 14.028 5.85992 14.232 5.0428 14.292V15.75H3.92218V14.274C2.75486 14.166 1.81518 13.806 1.10311 13.194C0.391051 12.57 0.0233463 11.73 0 10.674H2.62646C2.6965 11.538 3.1284 12.06 3.92218 12.24V8.802C3.08171 8.586 2.40467 8.37 1.89105 8.154C1.37743 7.938 0.933852 7.59 0.560311 7.11C0.18677 6.63 0 5.976 0 5.148C0 4.104 0.361868 3.252 1.0856 2.592C1.82101 1.932 2.76654 1.554 3.92218 1.458V0H5.0428V1.458C6.16342 1.554 7.05642 1.902 7.72179 2.502C8.39883 3.102 8.77821 3.93 8.85992 4.986H6.21595C6.18093 4.638 6.05837 4.338 5.84825 4.086C5.64981 3.822 5.38132 3.636 5.0428 3.528V6.93C5.91829 7.158 6.607 7.38 7.10895 7.596C7.62257 7.8 8.06615 8.142 8.43969 8.622C8.81323 9.09 9 9.738 9 10.566ZM2.55642 5.022C2.55642 5.418 2.67315 5.742 2.90661 5.994C3.14008 6.234 3.4786 6.432 3.92218 6.588V3.474C3.50195 3.534 3.16926 3.696 2.92412 3.96C2.67899 4.224 2.55642 4.578 2.55642 5.022ZM5.0428 12.276C5.48638 12.192 5.83074 12.006 6.07587 11.718C6.33268 11.43 6.46109 11.082 6.46109 10.674C6.46109 10.278 6.33852 9.96 6.09339 9.72C5.84825 9.48 5.49805 9.282 5.0428 9.126V12.276Z" fill="url(#paint1_linear_1557_349)" fill-opacity="0.5" style="mix-blend-mode:overlay"/>
<defs>
<linearGradient id="paint0_linear_1557_349" x1="4.5" y1="0" x2="4.5" y2="15.75" gradientUnits="userSpaceOnUse">
<stop stop-color="white"/>
<stop offset="1" stop-color="white" stop-opacity="0"/>
</linearGradient>
<linearGradient id="paint1_linear_1557_349" x1="4.5" y1="0" x2="4.5" y2="15.75" gradientUnits="userSpaceOnUse">
<stop stop-color="white"/>
<stop offset="1" stop-color="white" stop-opacity="0"/>
</linearGradient>
</defs>
</svg>
