<svg width="69" height="69" viewBox="0 0 69 69" fill="none" xmlns="http://www.w3.org/2000/svg">
<g filter="url(#filter0_d_1210_1077)">
<path d="M30.0531 15.1489C30.208 16.827 31.7507 18.0049 33.5465 17.8391C33.9678 17.8035 34.3783 17.6899 34.7542 17.505C35.13 17.3201 35.4637 17.0675 35.7357 16.762C36.0077 16.4564 36.2127 16.1041 36.3386 15.7255C36.4645 15.3469 36.5089 14.9495 36.4691 14.5567C36.4346 14.1637 36.3172 13.7821 36.1236 13.4337C35.9299 13.0853 35.664 12.777 35.341 12.5268C35.018 12.2765 34.6444 12.0891 34.2418 11.9755C33.8391 11.8618 33.4154 11.8242 32.995 11.8646C31.1992 12.0304 29.8999 13.4897 30.0531 15.1489ZM48.5119 13.4451C48.6668 15.1232 50.2288 16.2993 52.0053 16.1353C53.802 15.9695 55.1022 14.5292 54.9473 12.8511C54.794 11.191 53.2505 9.99498 51.4538 10.1608C49.6774 10.3248 48.3587 11.7858 48.5119 13.4451Z" fill="white"/>
<path d="M30.0531 15.1489C30.208 16.827 31.7507 18.0049 33.5465 17.8391C33.9678 17.8035 34.3783 17.6899 34.7542 17.505C35.13 17.3201 35.4637 17.0675 35.7357 16.762C36.0077 16.4564 36.2127 16.1041 36.3386 15.7255C36.4645 15.3469 36.5089 14.9495 36.4691 14.5567C36.4346 14.1637 36.3172 13.7821 36.1236 13.4337C35.9299 13.0853 35.664 12.777 35.341 12.5268C35.018 12.2765 34.6444 12.0891 34.2418 11.9755C33.8391 11.8618 33.4154 11.8242 32.995 11.8646C31.1992 12.0304 29.8999 13.4897 30.0531 15.1489ZM48.5119 13.4451C48.6668 15.1232 50.2288 16.2993 52.0053 16.1353C53.802 15.9695 55.1022 14.5292 54.9473 12.8511C54.794 11.191 53.2505 9.99498 51.4538 10.1608C49.6774 10.3248 48.3587 11.7858 48.5119 13.4451Z" fill="url(#paint0_linear_1210_1077)" fill-opacity="0.5" style="mix-blend-mode:overlay"/>
</g>
<g filter="url(#filter1_d_1210_1077)">
<path d="M16.7407 10.2193C16.3246 12.5895 18.0082 14.7911 20.5447 15.2364C21.1385 15.3454 21.7467 15.3429 22.334 15.2291C22.9212 15.1153 23.4757 14.8925 23.9651 14.5736C24.4545 14.2547 24.869 13.8461 25.1845 13.3717C25.5001 12.8972 25.7102 12.3665 25.8028 11.8102C25.9027 11.2559 25.8841 10.686 25.748 10.1334C25.612 9.5807 25.3611 9.05623 25.01 8.59024C24.6589 8.12425 24.2145 7.72594 23.7023 7.41832C23.1902 7.1107 22.6205 6.89984 22.0262 6.79792C19.4897 6.35261 17.1521 7.87575 16.7407 10.2193ZM42.8123 14.7965C42.3962 17.1667 44.1072 19.3731 46.6163 19.8136C49.154 20.2591 51.4857 18.7624 51.9018 16.3922C52.3134 14.0476 50.6354 11.8206 48.0978 11.3751C45.5886 10.9346 43.2237 12.4529 42.8123 14.7965Z" fill="white"/>
<path d="M16.7407 10.2193C16.3246 12.5895 18.0082 14.7911 20.5447 15.2364C21.1385 15.3454 21.7467 15.3429 22.334 15.2291C22.9212 15.1153 23.4757 14.8925 23.9651 14.5736C24.4545 14.2547 24.869 13.8461 25.1845 13.3717C25.5001 12.8972 25.7102 12.3665 25.8028 11.8102C25.9027 11.2559 25.8841 10.686 25.748 10.1334C25.612 9.5807 25.3611 9.05623 25.01 8.59024C24.6589 8.12425 24.2145 7.72594 23.7023 7.41832C23.1902 7.1107 22.6205 6.89984 22.0262 6.79792C19.4897 6.35261 17.1521 7.87575 16.7407 10.2193ZM42.8123 14.7965C42.3962 17.1667 44.1072 19.3731 46.6163 19.8136C49.154 20.2591 51.4857 18.7624 51.9018 16.3922C52.3134 14.0476 50.6354 11.8206 48.0978 11.3751C45.5886 10.9346 43.2237 12.4529 42.8123 14.7965Z" fill="url(#paint1_linear_1210_1077)" fill-opacity="0.5" style="mix-blend-mode:overlay"/>
</g>
<g filter="url(#filter2_d_1210_1077)">
<path d="M34.3697 31.0872C35.701 33.0919 38.3323 33.5981 40.3441 32.2622C40.8183 31.9529 41.2264 31.5527 41.5447 31.085C41.8629 30.6172 42.085 30.0911 42.1979 29.5375C42.3109 28.9839 42.3124 28.4138 42.2024 27.8605C42.0924 27.3071 41.8731 26.7815 41.5573 26.3144C41.2477 25.8439 40.8476 25.4396 40.3802 25.1248C39.9127 24.81 39.3871 24.591 38.8337 24.4805C38.2803 24.3699 37.71 24.3699 37.1558 24.4805C36.6016 24.5911 36.0744 24.8102 35.6046 25.125C33.5928 26.4609 33.0535 29.1051 34.3697 31.0872ZM55.0481 17.3559C56.3794 19.3606 59.0324 19.8524 61.0225 18.5309C63.0352 17.1944 63.5886 14.5734 62.2574 12.5687C60.9405 10.5856 58.2958 10.0571 56.283 11.3936C54.293 12.7151 53.7319 15.3737 55.0481 17.3559Z" fill="white"/>
<path d="M34.3697 31.0872C35.701 33.0919 38.3323 33.5981 40.3441 32.2622C40.8183 31.9529 41.2264 31.5527 41.5447 31.085C41.8629 30.6172 42.085 30.0911 42.1979 29.5375C42.3109 28.9839 42.3124 28.4138 42.2024 27.8605C42.0924 27.3071 41.8731 26.7815 41.5573 26.3144C41.2477 25.8439 40.8476 25.4396 40.3802 25.1248C39.9127 24.81 39.3871 24.591 38.8337 24.4805C38.2803 24.3699 37.71 24.3699 37.1558 24.4805C36.6016 24.5911 36.0744 24.8102 35.6046 25.125C33.5928 26.4609 33.0535 29.1051 34.3697 31.0872ZM55.0481 17.3559C56.3794 19.3606 59.0324 19.8524 61.0225 18.5309C63.0352 17.1944 63.5886 14.5734 62.2574 12.5687C60.9405 10.5856 58.2958 10.0571 56.283 11.3936C54.293 12.7151 53.7319 15.3737 55.0481 17.3559Z" fill="url(#paint2_linear_1210_1077)" fill-opacity="0.5" style="mix-blend-mode:overlay"/>
</g>
<g filter="url(#filter3_d_1210_1077)">
<path d="M51.0947 32.4689C52.6537 31.3575 52.995 29.2631 51.8898 27.7128C51.6338 27.3472 51.3072 27.0365 50.929 26.7988C50.5508 26.5612 50.1287 26.4012 49.6872 26.3284C49.2457 26.2555 48.7937 26.2712 48.3574 26.3745C47.9212 26.4778 47.5095 26.6667 47.1463 26.9301C46.7804 27.1887 46.4689 27.5168 46.23 27.8955C45.9912 28.2743 45.8295 28.6961 45.7545 29.1367C45.6795 29.5774 45.6925 30.028 45.7929 30.4627C45.8932 30.8974 46.0789 31.3076 46.3392 31.6695C47.4444 33.2198 49.5532 33.5677 51.0947 32.4689ZM39.7354 16.5339C41.2945 15.4225 41.6238 13.3114 40.5306 11.7778C39.425 10.2268 37.3342 9.86705 35.7752 10.9784C34.233 12.0778 33.8744 14.1835 34.98 15.7345C36.0732 17.2681 38.1939 17.6328 39.7354 16.5339Z" fill="white"/>
<path d="M51.0947 32.4689C52.6537 31.3575 52.995 29.2631 51.8898 27.7128C51.6338 27.3472 51.3072 27.0365 50.929 26.7988C50.5508 26.5612 50.1287 26.4012 49.6872 26.3284C49.2457 26.2555 48.7937 26.2712 48.3574 26.3745C47.9212 26.4778 47.5095 26.6667 47.1463 26.9301C46.7804 27.1887 46.4689 27.5168 46.23 27.8955C45.9912 28.2743 45.8295 28.6961 45.7545 29.1367C45.6795 29.5774 45.6925 30.028 45.7929 30.4627C45.8932 30.8974 46.0789 31.3076 46.3392 31.6695C47.4444 33.2198 49.5532 33.5677 51.0947 32.4689ZM39.7354 16.5339C41.2945 15.4225 41.6238 13.3114 40.5306 11.7778C39.425 10.2268 37.3342 9.86705 35.7752 10.9784C34.233 12.0778 33.8744 14.1835 34.98 15.7345C36.0732 17.2681 38.1939 17.6328 39.7354 16.5339Z" fill="url(#paint3_linear_1210_1077)" fill-opacity="0.5" style="mix-blend-mode:overlay"/>
</g>
<path d="M1.17432 8.27879C1.17432 9.46165 2.15633 10.4732 3.31208 10.4732H13.0719L17.6924 42.1812C18.2999 46.2818 20.4647 48.852 24.6528 48.852H58.3544C59.4793 48.852 60.4613 47.9279 60.4613 46.6871C60.4613 45.4451 59.4793 44.521 58.3544 44.521H25.1432C23.497 44.521 22.4867 43.3653 22.2267 41.6046L21.7647 38.5723H58.411C62.6274 38.5723 64.7935 35.9724 65.3998 31.8435L67.71 16.5662C67.7713 16.2034 67.81 15.8372 67.8259 15.4696C67.8259 14.0834 66.7859 13.1297 65.1977 13.1297H18.0682L17.4904 9.46288C17.202 7.23886 16.3937 6.11145 13.4489 6.11145H3.31085C2.15633 6.11145 1.17432 7.12304 1.17432 8.27879ZM22.2279 58.2089C22.2279 60.8371 24.3078 62.8874 26.9347 62.8874C27.5505 62.8925 28.1612 62.7749 28.7311 62.5416C29.301 62.3083 29.8188 61.9639 30.2542 61.5284C30.6897 61.093 31.0341 60.5752 31.2674 60.0053C31.5007 59.4354 31.6183 58.8247 31.6132 58.2089C31.6158 57.5938 31.4965 56.9843 31.2624 56.4155C31.0282 55.8467 30.6837 55.3299 30.2487 54.8949C29.8137 54.46 29.297 54.1155 28.7282 53.8813C28.1594 53.6471 27.5498 53.5279 26.9347 53.5305C24.3078 53.5305 22.2279 55.6103 22.2279 58.2089ZM49.2291 58.2089C49.2291 60.8371 51.3373 62.8874 53.9359 62.8874C56.5641 62.8874 58.6427 60.8371 58.6427 58.2089C58.6427 55.6091 56.5641 53.5305 53.9359 53.5305C51.3373 53.5305 49.2291 55.6103 49.2291 58.2089Z" fill="#904BFF"/>
<path d="M1.17432 8.27879C1.17432 9.46165 2.15633 10.4732 3.31208 10.4732H13.0719L17.6924 42.1812C18.2999 46.2818 20.4647 48.852 24.6528 48.852H58.3544C59.4793 48.852 60.4613 47.9279 60.4613 46.6871C60.4613 45.4451 59.4793 44.521 58.3544 44.521H25.1432C23.497 44.521 22.4867 43.3653 22.2267 41.6046L21.7647 38.5723H58.411C62.6274 38.5723 64.7935 35.9724 65.3998 31.8435L67.71 16.5662C67.7713 16.2034 67.81 15.8372 67.8259 15.4696C67.8259 14.0834 66.7859 13.1297 65.1977 13.1297H18.0682L17.4904 9.46288C17.202 7.23886 16.3937 6.11145 13.4489 6.11145H3.31085C2.15633 6.11145 1.17432 7.12304 1.17432 8.27879ZM22.2279 58.2089C22.2279 60.8371 24.3078 62.8874 26.9347 62.8874C27.5505 62.8925 28.1612 62.7749 28.7311 62.5416C29.301 62.3083 29.8188 61.9639 30.2542 61.5284C30.6897 61.093 31.0341 60.5752 31.2674 60.0053C31.5007 59.4354 31.6183 58.8247 31.6132 58.2089C31.6158 57.5938 31.4965 56.9843 31.2624 56.4155C31.0282 55.8467 30.6837 55.3299 30.2487 54.8949C29.8137 54.46 29.297 54.1155 28.7282 53.8813C28.1594 53.6471 27.5498 53.5279 26.9347 53.5305C24.3078 53.5305 22.2279 55.6103 22.2279 58.2089ZM49.2291 58.2089C49.2291 60.8371 51.3373 62.8874 53.9359 62.8874C56.5641 62.8874 58.6427 60.8371 58.6427 58.2089C58.6427 55.6091 56.5641 53.5305 53.9359 53.5305C51.3373 53.5305 49.2291 55.6103 49.2291 58.2089Z" fill="url(#paint4_linear_1210_1077)" fill-opacity="0.5" style="mix-blend-mode:overlay"/>
<g filter="url(#filter4_d_1210_1077)">
<path d="M22.228 58.2089C22.228 60.837 24.3079 62.8873 26.9348 62.8873C27.5506 62.8924 28.1613 62.7749 28.7312 62.5416C29.3011 62.3083 29.8189 61.9638 30.2543 61.5284C30.6898 61.0929 31.0342 60.5752 31.2675 60.0052C31.5008 59.4353 31.6183 58.8247 31.6133 58.2089C31.6159 57.5938 31.4966 56.9842 31.2624 56.4154C31.0283 55.8466 30.6837 55.3299 30.2488 54.8949C29.8138 54.46 29.297 54.1154 28.7283 53.8812C28.1595 53.6471 27.5499 53.5278 26.9348 53.5304C24.3079 53.5304 22.228 55.6103 22.228 58.2089ZM49.2292 58.2089C49.2292 60.837 51.3374 62.8873 53.936 62.8873C56.5641 62.8873 58.6428 60.837 58.6428 58.2089C58.6428 55.6091 56.5641 53.5304 53.936 53.5304C51.3374 53.5304 49.2292 55.6103 49.2292 58.2089Z" fill="white"/>
<path d="M22.228 58.2089C22.228 60.837 24.3079 62.8873 26.9348 62.8873C27.5506 62.8924 28.1613 62.7749 28.7312 62.5416C29.3011 62.3083 29.8189 61.9638 30.2543 61.5284C30.6898 61.0929 31.0342 60.5752 31.2675 60.0052C31.5008 59.4353 31.6183 58.8247 31.6133 58.2089C31.6159 57.5938 31.4966 56.9842 31.2624 56.4154C31.0283 55.8466 30.6837 55.3299 30.2488 54.8949C29.8138 54.46 29.297 54.1154 28.7283 53.8812C28.1595 53.6471 27.5499 53.5278 26.9348 53.5304C24.3079 53.5304 22.228 55.6103 22.228 58.2089ZM49.2292 58.2089C49.2292 60.837 51.3374 62.8873 53.936 62.8873C56.5641 62.8873 58.6428 60.837 58.6428 58.2089C58.6428 55.6091 56.5641 53.5304 53.936 53.5304C51.3374 53.5304 49.2292 55.6103 49.2292 58.2089Z" fill="url(#paint5_linear_1210_1077)" fill-opacity="0.5" style="mix-blend-mode:overlay"/>
</g>
<defs>
<filter id="filter0_d_1210_1077" x="24.541" y="4.64551" width="35.9189" height="18.7091" filterUnits="userSpaceOnUse" color-interpolation-filters="sRGB">
<feFlood flood-opacity="0" result="BackgroundImageFix"/>
<feColorMatrix in="SourceAlpha" type="matrix" values="0 0 0 0 0 0 0 0 0 0 0 0 0 0 0 0 0 0 127 0" result="hardAlpha"/>
<feOffset/>
<feGaussianBlur stdDeviation="2.75"/>
<feComposite in2="hardAlpha" operator="out"/>
<feColorMatrix type="matrix" values="0 0 0 0 1 0 0 0 0 1 0 0 0 0 1 0 0 0 0.25 0"/>
<feBlend mode="normal" in2="BackgroundImageFix" result="effect1_dropShadow_1210_1077"/>
<feBlend mode="normal" in="SourceGraphic" in2="effect1_dropShadow_1210_1077" result="shape"/>
</filter>
<filter id="filter1_d_1210_1077" x="11.1777" y="1.22058" width="46.2861" height="24.1714" filterUnits="userSpaceOnUse" color-interpolation-filters="sRGB">
<feFlood flood-opacity="0" result="BackgroundImageFix"/>
<feColorMatrix in="SourceAlpha" type="matrix" values="0 0 0 0 0 0 0 0 0 0 0 0 0 0 0 0 0 0 127 0" result="hardAlpha"/>
<feOffset/>
<feGaussianBlur stdDeviation="2.75"/>
<feComposite in2="hardAlpha" operator="out"/>
<feColorMatrix type="matrix" values="0 0 0 0 1 0 0 0 0 1 0 0 0 0 1 0 0 0 0.25 0"/>
<feBlend mode="normal" in2="BackgroundImageFix" result="effect1_dropShadow_1210_1077"/>
<feBlend mode="normal" in="SourceGraphic" in2="effect1_dropShadow_1210_1077" result="shape"/>
</filter>
<filter id="filter2_d_1210_1077" x="28.1514" y="5.15515" width="40.3311" height="33.351" filterUnits="userSpaceOnUse" color-interpolation-filters="sRGB">
<feFlood flood-opacity="0" result="BackgroundImageFix"/>
<feColorMatrix in="SourceAlpha" type="matrix" values="0 0 0 0 0 0 0 0 0 0 0 0 0 0 0 0 0 0 127 0" result="hardAlpha"/>
<feOffset/>
<feGaussianBlur stdDeviation="2.75"/>
<feComposite in2="hardAlpha" operator="out"/>
<feColorMatrix type="matrix" values="0 0 0 0 1 0 0 0 0 1 0 0 0 0 1 0 0 0 0.25 0"/>
<feBlend mode="normal" in2="BackgroundImageFix" result="effect1_dropShadow_1210_1077"/>
<feBlend mode="normal" in="SourceGraphic" in2="effect1_dropShadow_1210_1077" result="shape"/>
</filter>
<filter id="filter3_d_1210_1077" x="28.8379" y="4.83276" width="29.1987" height="33.7761" filterUnits="userSpaceOnUse" color-interpolation-filters="sRGB">
<feFlood flood-opacity="0" result="BackgroundImageFix"/>
<feColorMatrix in="SourceAlpha" type="matrix" values="0 0 0 0 0 0 0 0 0 0 0 0 0 0 0 0 0 0 127 0" result="hardAlpha"/>
<feOffset/>
<feGaussianBlur stdDeviation="2.75"/>
<feComposite in2="hardAlpha" operator="out"/>
<feColorMatrix type="matrix" values="0 0 0 0 1 0 0 0 0 1 0 0 0 0 1 0 0 0 0.25 0"/>
<feBlend mode="normal" in2="BackgroundImageFix" result="effect1_dropShadow_1210_1077"/>
<feBlend mode="normal" in="SourceGraphic" in2="effect1_dropShadow_1210_1077" result="shape"/>
</filter>
<filter id="filter4_d_1210_1077" x="16.728" y="48.0304" width="47.4146" height="20.3571" filterUnits="userSpaceOnUse" color-interpolation-filters="sRGB">
<feFlood flood-opacity="0" result="BackgroundImageFix"/>
<feColorMatrix in="SourceAlpha" type="matrix" values="0 0 0 0 0 0 0 0 0 0 0 0 0 0 0 0 0 0 127 0" result="hardAlpha"/>
<feOffset/>
<feGaussianBlur stdDeviation="2.75"/>
<feComposite in2="hardAlpha" operator="out"/>
<feColorMatrix type="matrix" values="0 0 0 0 1 0 0 0 0 1 0 0 0 0 1 0 0 0 0.25 0"/>
<feBlend mode="normal" in2="BackgroundImageFix" result="effect1_dropShadow_1210_1077"/>
<feBlend mode="normal" in="SourceGraphic" in2="effect1_dropShadow_1210_1077" result="shape"/>
</filter>
<linearGradient id="paint0_linear_1210_1077" x1="35.3721" y1="-18.8903" x2="38.7184" y2="17.3619" gradientUnits="userSpaceOnUse">
<stop stop-color="white"/>
<stop offset="0.695" stop-color="white" stop-opacity="0"/>
</linearGradient>
<linearGradient id="paint1_linear_1210_1077" x1="36.8388" y1="-34.6842" x2="27.8495" y2="16.519" gradientUnits="userSpaceOnUse">
<stop stop-color="white"/>
<stop offset="0.695" stop-color="white" stop-opacity="0"/>
</linearGradient>
<linearGradient id="paint2_linear_1210_1077" x1="17.3798" y1="-14.8926" x2="46.1379" y2="28.4151" gradientUnits="userSpaceOnUse">
<stop stop-color="white"/>
<stop offset="0.695" stop-color="white" stop-opacity="0"/>
</linearGradient>
<linearGradient id="paint3_linear_1210_1077" x1="15.0272" y1="47.2568" x2="48.7073" y2="23.248" gradientUnits="userSpaceOnUse">
<stop stop-color="white"/>
<stop offset="0.695" stop-color="white" stop-opacity="0"/>
</linearGradient>
<linearGradient id="paint4_linear_1210_1077" x1="34.5001" y1="6.11145" x2="34.5001" y2="62.8875" gradientUnits="userSpaceOnUse">
<stop stop-color="white"/>
<stop offset="0.695" stop-color="white" stop-opacity="0"/>
</linearGradient>
<linearGradient id="paint5_linear_1210_1077" x1="34.5001" y1="6.11145" x2="34.5001" y2="62.8875" gradientUnits="userSpaceOnUse">
<stop stop-color="white"/>
<stop offset="0.695" stop-color="white" stop-opacity="0"/>
</linearGradient>
</defs>
</svg>
