<svg width="17" height="10" viewBox="0 0 17 10" fill="none" xmlns="http://www.w3.org/2000/svg">
<path fill-rule="evenodd" clip-rule="evenodd" d="M16.0282 6.43207C16.8599 5.77654 16.8599 4.58759 16.0282 3.93206C14.4377 2.67851 11.6542 0.932861 8.48624 0.932861C5.31827 0.932861 2.53476 2.67851 0.944333 3.93206C0.11263 4.58759 0.112632 5.77654 0.944334 6.43207C2.53477 7.68562 5.31828 9.43127 8.48624 9.43127C11.6542 9.43127 14.4377 7.68562 16.0282 6.43207ZM8.48244 7.88598C10.13 7.88598 11.4656 6.67534 11.4656 5.18194C11.4656 3.68854 10.13 2.4779 8.48244 2.4779C6.83491 2.4779 5.49932 3.68854 5.49932 5.18194C5.49932 6.67534 6.83491 7.88598 8.48244 7.88598Z" fill="#863AFF"/>
<ellipse cx="8.48324" cy="5.18253" rx="2.13119" ry="1.9318" fill="#863AFF"/>
</svg>