<svg width="13" height="13" viewBox="0 0 13 13" fill="none" xmlns="http://www.w3.org/2000/svg">
<path d="M11.9646 6.63322C11.9671 6.54379 11.9671 6.45435 11.9646 6.36491L12.8912 5.20722C12.9398 5.14643 12.9735 5.07509 12.9894 4.99892C13.0054 4.92276 13.0032 4.84391 12.9832 4.76873C12.831 4.1978 12.6038 3.64958 12.3074 3.13839C12.2686 3.07151 12.2147 3.01462 12.15 2.97225C12.0853 2.92987 12.0116 2.90319 11.9348 2.89431L10.4616 2.73034C10.4003 2.66575 10.3382 2.60364 10.2752 2.54402L10.1013 1.06709C10.0924 0.990204 10.0656 0.916474 10.0231 0.851776C9.98065 0.787077 9.92363 0.733199 9.85664 0.694437C9.34549 0.398335 8.79724 0.171516 8.2263 0.0199418C8.15112 -0.000143885 8.07227 -0.00229022 7.99611 0.0136758C7.91995 0.0296417 7.8486 0.0632736 7.78781 0.111862L6.63322 1.03355H6.36491L5.20722 0.108757C5.14643 0.0601682 5.07509 0.0265364 4.99892 0.0105704C4.92276 -0.00539559 4.84391 -0.00324937 4.76873 0.0168363C4.1978 0.169018 3.64958 0.396245 3.13839 0.692573C3.07151 0.731407 3.01462 0.785317 2.97225 0.850011C2.92987 0.914705 2.90319 0.988397 2.89431 1.06522L2.73034 2.54091C2.66575 2.60261 2.60364 2.66472 2.54402 2.72724L1.06709 2.89679C0.990204 2.90574 0.916474 2.93252 0.851776 2.97501C0.787077 3.01749 0.733199 3.0745 0.694437 3.1415C0.398396 3.65275 0.171383 4.20097 0.0193207 4.77184C-0.000680044 4.84707 -0.00272571 4.92594 0.0133486 5.00211C0.0294228 5.07827 0.0631673 5.14959 0.111862 5.21032L1.03355 6.36491V6.63322L0.108757 7.79092C0.0601682 7.8517 0.0265364 7.92305 0.0105704 7.99921C-0.00539559 8.07537 -0.00324937 8.15422 0.0168363 8.2294C0.169018 8.80033 0.396245 9.34856 0.692573 9.85974C0.731407 9.92662 0.785317 9.98351 0.850011 10.0259C0.914705 10.0683 0.988397 10.095 1.06522 10.1038L2.53843 10.2678C2.60012 10.3324 2.66223 10.3945 2.72475 10.4541L2.89679 11.9311C2.90574 12.0079 2.93252 12.0817 2.97501 12.1464C3.01749 12.2111 3.0745 12.2649 3.1415 12.3037C3.65275 12.5997 4.20097 12.8268 4.77184 12.9788C4.84707 12.9988 4.92594 13.0009 5.00211 12.9848C5.07827 12.9687 5.14959 12.935 5.21032 12.8863L6.36491 11.9646C6.45435 11.9671 6.54379 11.9671 6.63322 11.9646L7.79092 12.8912C7.8517 12.9398 7.92305 12.9735 7.99921 12.9894C8.07537 13.0054 8.15422 13.0032 8.2294 12.9832C8.80042 12.8313 9.34869 12.604 9.85974 12.3074C9.92662 12.2686 9.98351 12.2147 10.0259 12.15C10.0683 12.0853 10.095 12.0116 10.1038 11.9348L10.2678 10.4616C10.3324 10.4003 10.3945 10.3382 10.4541 10.2752L11.9311 10.1013C12.0079 10.0924 12.0817 10.0656 12.1464 10.0231C12.2111 9.98065 12.2649 9.92363 12.3037 9.85664C12.5997 9.34538 12.8268 8.79717 12.9788 8.2263C12.9988 8.15107 13.0009 8.07219 12.9848 7.99603C12.9687 7.91987 12.935 7.84854 12.8863 7.78781L11.9646 6.63322ZM6.49907 8.9834C6.00771 8.9834 5.5274 8.83769 5.11885 8.56471C4.7103 8.29173 4.39188 7.90373 4.20385 7.44978C4.01582 6.99583 3.96662 6.49631 4.06248 6.0144C4.15833 5.53249 4.39494 5.08982 4.74238 4.74238C5.08982 4.39494 5.53249 4.15833 6.0144 4.06248C6.49631 3.96662 6.99583 4.01582 7.44978 4.20385C7.90373 4.39188 8.29173 4.7103 8.56471 5.11885C8.83769 5.5274 8.9834 6.00771 8.9834 6.49907C8.9834 7.15795 8.72165 7.78985 8.25575 8.25575C7.78985 8.72165 7.15795 8.9834 6.49907 8.9834Z" fill="#863AFF"/>
<path d="M11.9646 6.63322C11.9671 6.54379 11.9671 6.45435 11.9646 6.36491L12.8912 5.20722C12.9398 5.14643 12.9735 5.07509 12.9894 4.99892C13.0054 4.92276 13.0032 4.84391 12.9832 4.76873C12.831 4.1978 12.6038 3.64958 12.3074 3.13839C12.2686 3.07151 12.2147 3.01462 12.15 2.97225C12.0853 2.92987 12.0116 2.90319 11.9348 2.89431L10.4616 2.73034C10.4003 2.66575 10.3382 2.60364 10.2752 2.54402L10.1013 1.06709C10.0924 0.990204 10.0656 0.916474 10.0231 0.851776C9.98065 0.787077 9.92363 0.733199 9.85664 0.694437C9.34549 0.398335 8.79724 0.171516 8.2263 0.0199418C8.15112 -0.000143885 8.07227 -0.00229022 7.99611 0.0136758C7.91995 0.0296417 7.8486 0.0632736 7.78781 0.111862L6.63322 1.03355H6.36491L5.20722 0.108757C5.14643 0.0601682 5.07509 0.0265364 4.99892 0.0105704C4.92276 -0.00539559 4.84391 -0.00324937 4.76873 0.0168363C4.1978 0.169018 3.64958 0.396245 3.13839 0.692573C3.07151 0.731407 3.01462 0.785317 2.97225 0.850011C2.92987 0.914705 2.90319 0.988397 2.89431 1.06522L2.73034 2.54091C2.66575 2.60261 2.60364 2.66472 2.54402 2.72724L1.06709 2.89679C0.990204 2.90574 0.916474 2.93252 0.851776 2.97501C0.787077 3.01749 0.733199 3.0745 0.694437 3.1415C0.398396 3.65275 0.171383 4.20097 0.0193207 4.77184C-0.000680044 4.84707 -0.00272571 4.92594 0.0133486 5.00211C0.0294228 5.07827 0.0631673 5.14959 0.111862 5.21032L1.03355 6.36491V6.63322L0.108757 7.79092C0.0601682 7.8517 0.0265364 7.92305 0.0105704 7.99921C-0.00539559 8.07537 -0.00324937 8.15422 0.0168363 8.2294C0.169018 8.80033 0.396245 9.34856 0.692573 9.85974C0.731407 9.92662 0.785317 9.98351 0.850011 10.0259C0.914705 10.0683 0.988397 10.095 1.06522 10.1038L2.53843 10.2678C2.60012 10.3324 2.66223 10.3945 2.72475 10.4541L2.89679 11.9311C2.90574 12.0079 2.93252 12.0817 2.97501 12.1464C3.01749 12.2111 3.0745 12.2649 3.1415 12.3037C3.65275 12.5997 4.20097 12.8268 4.77184 12.9788C4.84707 12.9988 4.92594 13.0009 5.00211 12.9848C5.07827 12.9687 5.14959 12.935 5.21032 12.8863L6.36491 11.9646C6.45435 11.9671 6.54379 11.9671 6.63322 11.9646L7.79092 12.8912C7.8517 12.9398 7.92305 12.9735 7.99921 12.9894C8.07537 13.0054 8.15422 13.0032 8.2294 12.9832C8.80042 12.8313 9.34869 12.604 9.85974 12.3074C9.92662 12.2686 9.98351 12.2147 10.0259 12.15C10.0683 12.0853 10.095 12.0116 10.1038 11.9348L10.2678 10.4616C10.3324 10.4003 10.3945 10.3382 10.4541 10.2752L11.9311 10.1013C12.0079 10.0924 12.0817 10.0656 12.1464 10.0231C12.2111 9.98065 12.2649 9.92363 12.3037 9.85664C12.5997 9.34538 12.8268 8.79717 12.9788 8.2263C12.9988 8.15107 13.0009 8.07219 12.9848 7.99603C12.9687 7.91987 12.935 7.84854 12.8863 7.78781L11.9646 6.63322ZM6.49907 8.9834C6.00771 8.9834 5.5274 8.83769 5.11885 8.56471C4.7103 8.29173 4.39188 7.90373 4.20385 7.44978C4.01582 6.99583 3.96662 6.49631 4.06248 6.0144C4.15833 5.53249 4.39494 5.08982 4.74238 4.74238C5.08982 4.39494 5.53249 4.15833 6.0144 4.06248C6.49631 3.96662 6.99583 4.01582 7.44978 4.20385C7.90373 4.39188 8.29173 4.7103 8.56471 5.11885C8.83769 5.5274 8.9834 6.00771 8.9834 6.49907C8.9834 7.15795 8.72165 7.78985 8.25575 8.25575C7.78985 8.72165 7.15795 8.9834 6.49907 8.9834Z" fill="url(#paint0_linear_1368_1222)" fill-opacity="0.5" style="mix-blend-mode:overlay"/>
<defs>
<linearGradient id="paint0_linear_1368_1222" x1="6.5" y1="0" x2="6.5" y2="13" gradientUnits="userSpaceOnUse">
<stop stop-color="white"/>
<stop offset="1" stop-color="white" stop-opacity="0"/>
</linearGradient>
</defs>
</svg>
