<svg width="44" height="43" viewBox="0 0 44 43" fill="none" xmlns="http://www.w3.org/2000/svg">
<path d="M18.2029 24.9671C18.0925 24.9671 18.0029 24.8775 18.0029 24.7671V17.0698C18.0029 16.9593 18.0925 16.8698 18.2029 16.8698H19.5261C19.6366 16.8698 19.7261 16.9593 19.7261 17.0698V20.0107C19.7261 20.1212 19.8157 20.2107 19.9261 20.2107H23.0243C23.1347 20.2107 23.2243 20.1212 23.2243 20.0107V17.0698C23.2243 16.9593 23.3138 16.8698 23.4243 16.8698H24.7435C24.854 16.8698 24.9435 16.9593 24.9435 17.0698V24.7671C24.9435 24.8775 24.854 24.9671 24.7435 24.9671H23.4243C23.3138 24.9671 23.2243 24.8775 23.2243 24.7671V21.8222C23.2243 21.7117 23.1347 21.6222 23.0243 21.6222H19.9261C19.8157 21.6222 19.7261 21.7117 19.7261 21.8222V24.7671C19.7261 24.8775 19.6366 24.9671 19.5261 24.9671H18.2029Z" fill="#EBA856"/>
<path d="M36.6279 21.0577C36.6279 29.1349 30.0801 35.6827 22.0029 35.6827C13.9258 35.6827 7.37793 29.1349 7.37793 21.0577C7.37793 12.9806 13.9258 6.43274 22.0029 6.43274C30.0801 6.43274 36.6279 12.9806 36.6279 21.0577Z" fill="url(#paint0_linear_1_1425)" stroke="white" stroke-width="0.75"/>
<path d="M7.04382 21.391H12.0028V22.0577H7.07847L7.04382 21.391Z" fill="white"/>
<path d="M7.05891 20.0576H12.0029V20.7243H7.05872L7.05891 20.0576Z" fill="white"/>
<path d="M32.0028 21.391H36.8301V22.0262L32.0028 22.0577V21.391Z" fill="white"/>
<path d="M32.0028 20.0576H36.9218V20.7243H32.0028V20.0576Z" fill="white"/>
<rect x="22.3362" y="36.0576" width="4.96667" height="0.666667" transform="rotate(-90 22.3362 36.0576)" fill="white"/>
<rect x="21.0028" y="36.0576" width="4.96667" height="0.666667" transform="rotate(-90 21.0028 36.0576)" fill="white"/>
<rect x="22.3362" y="11.2242" width="4.96667" height="0.666667" transform="rotate(-90 22.3362 11.2242)" fill="white"/>
<rect x="21.0028" y="11.2242" width="4.96667" height="0.666667" transform="rotate(-90 21.0028 11.2242)" fill="white"/>
<rect x="11.62" y="31.8713" width="5" height="0.666667" transform="rotate(-45 11.62 31.8713)" fill="white"/>
<rect x="10.6772" y="30.9286" width="5" height="1.74843" transform="rotate(-45 10.6772 30.9286)" fill="white"/>
<path d="M29.2976 14.1936L32.711 10.7802L33.1601 11.2294L29.769 14.665L29.2976 14.1936Z" fill="white"/>
<path d="M28.3817 13.2777L31.7951 9.86433L33.117 11.1863L29.7691 14.6651L28.3817 13.2777Z" fill="white"/>
<path d="M28.3549 13.2509L31.8331 9.77257L32.3045 10.244L28.8263 13.7223L28.3549 13.2509Z" fill="white"/>
<rect x="32.1594" y="32.0737" width="5" height="1.6196" transform="rotate(-135 32.1594 32.0737)" fill="white"/>
<rect x="31.8904" y="32.3428" width="5" height="0.666667" transform="rotate(-135 31.8904 32.3428)" fill="white"/>
<path d="M14.3854 14.4926L11.0031 11.058L12.2447 9.81632L15.627 13.2509L14.3854 14.4926Z" fill="white"/>
<path d="M14.2128 14.6652L11.0028 11.5582L11.5031 11.058L14.6842 14.1938L14.2128 14.6652Z" fill="white"/>
<circle cx="22.0029" cy="21.0577" r="10.25" fill="url(#paint1_linear_1_1425)" stroke="white" stroke-width="0.5"/>
<g filter="url(#filter0_d_1_1425)">
<path d="M18.2029 25.785C18.0925 25.785 18.0029 25.6955 18.0029 25.585V17.2577C18.0029 17.1473 18.0925 17.0577 18.2029 17.0577H20.1722C20.2827 17.0577 20.3722 17.1473 20.3722 17.2577V20.2668C20.3722 20.3773 20.4618 20.4668 20.5722 20.4668H23.3086C23.4191 20.4668 23.5086 20.3773 23.5086 20.2668V17.2577C23.5086 17.1473 23.5982 17.0577 23.7086 17.0577H25.6779C25.7884 17.0577 25.8779 17.1473 25.8779 17.2577V25.585C25.8779 25.6955 25.7884 25.785 25.6779 25.785H23.7086C23.5982 25.785 23.5086 25.6955 23.5086 25.585V22.5759C23.5086 22.4655 23.4191 22.3759 23.3086 22.3759H20.5722C20.4618 22.3759 20.3722 22.4655 20.3722 22.5759V25.585C20.3722 25.6955 20.2827 25.785 20.1722 25.785H18.2029Z" fill="#D47D26"/>
</g>
<rect x="10.0029" y="25.0577" width="1" height="1" rx="0.5" fill="white"/>
<rect width="1" height="1" rx="0.5" transform="matrix(-1 0 0 1 27.0029 32.0577)" fill="white"/>
<rect width="1" height="1" rx="0.5" transform="matrix(1 0 0 -1 17.0029 10.0577)" fill="white"/>
<rect x="34.0029" y="17.0577" width="1" height="1" rx="0.5" transform="rotate(180 34.0029 17.0577)" fill="white"/>
<path d="M27.0029 9.61513C27.0029 9.75444 26.8699 9.81826 26.7779 9.8183C26.6753 9.8183 26.5977 9.77635 26.5516 9.7421C26.5577 9.85543 26.5874 9.93639 26.7207 10.0001H26.2851C26.4185 9.93639 26.4482 9.85543 26.4543 9.7421C26.4081 9.77633 26.3306 9.81835 26.228 9.8183C26.1361 9.8183 26.0029 9.75444 26.0029 9.61513C26.0029 9.36051 26.2016 9.4298 26.5029 9.00012C26.8042 9.4298 27.0029 9.36053 27.0029 9.61513Z" fill="white"/>
<path d="M34.0029 25.6151C34.0029 25.7544 33.8699 25.8183 33.7779 25.8183C33.6753 25.8183 33.5977 25.7764 33.5516 25.7421C33.5577 25.8554 33.5874 25.9364 33.7207 26.0001H33.2851C33.4185 25.9364 33.4482 25.8554 33.4543 25.7421C33.4081 25.7763 33.3306 25.8183 33.228 25.8183C33.1361 25.8183 33.0029 25.7544 33.0029 25.6151C33.0029 25.3605 33.2016 25.4298 33.5029 25.0001C33.8042 25.4298 34.0029 25.3605 34.0029 25.6151Z" fill="white"/>
<path d="M18.0029 32.6151C18.0029 32.7544 17.8699 32.8183 17.7779 32.8183C17.6753 32.8183 17.5977 32.7764 17.5516 32.7421C17.5577 32.8554 17.5874 32.9364 17.7207 33.0001H17.2851C17.4185 32.9364 17.4482 32.8554 17.4543 32.7421C17.4081 32.7763 17.3306 32.8183 17.228 32.8183C17.1361 32.8183 17.0029 32.7544 17.0029 32.6151C17.0029 32.3605 17.2016 32.4298 17.5029 32.0001C17.8042 32.4298 18.0029 32.3605 18.0029 32.6151Z" fill="white"/>
<path d="M11.0029 16.6151C11.0029 16.7544 10.8699 16.8183 10.7779 16.8183C10.6753 16.8183 10.5977 16.7764 10.5516 16.7421C10.5577 16.8554 10.5874 16.9364 10.7207 17.0001H10.2851C10.4185 16.9364 10.4482 16.8554 10.4543 16.7421C10.4081 16.7763 10.3306 16.8183 10.228 16.8183C10.1361 16.8183 10.0029 16.7544 10.0029 16.6151C10.0029 16.3605 10.2016 16.4298 10.5029 16.0001C10.8042 16.4298 11.0029 16.3605 11.0029 16.6151Z" fill="white"/>
<defs>
<filter id="filter0_d_1_1425" x="18.0029" y="17.0577" width="7.875" height="9.02729" filterUnits="userSpaceOnUse" color-interpolation-filters="sRGB">
<feFlood flood-opacity="0" result="BackgroundImageFix"/>
<feColorMatrix in="SourceAlpha" type="matrix" values="0 0 0 0 0 0 0 0 0 0 0 0 0 0 0 0 0 0 127 0" result="hardAlpha"/>
<feOffset dy="0.3"/>
<feComposite in2="hardAlpha" operator="out"/>
<feColorMatrix type="matrix" values="0 0 0 0 0.831373 0 0 0 0 0.490196 0 0 0 0 0.14902 0 0 0 0.5 0"/>
<feBlend mode="normal" in2="BackgroundImageFix" result="effect1_dropShadow_1_1425"/>
<feBlend mode="normal" in="SourceGraphic" in2="effect1_dropShadow_1_1425" result="shape"/>
</filter>
<linearGradient id="paint0_linear_1_1425" x1="20.4581" y1="5.75873" x2="9.0141" y2="25.6535" gradientUnits="userSpaceOnUse">
<stop stop-color="#FFC875"/>
<stop offset="1" stop-color="#C96A12"/>
</linearGradient>
<linearGradient id="paint1_linear_1_1425" x1="25.5029" y1="12.0577" x2="17.5029" y2="34.0577" gradientUnits="userSpaceOnUse">
<stop stop-color="#FFFDFA"/>
<stop offset="0.874959" stop-color="#FCE2A1"/>
</linearGradient>
</defs>
</svg>
