<svg width="10" height="10" viewBox="0 0 10 10" fill="none" xmlns="http://www.w3.org/2000/svg">
<path fill-rule="evenodd" clip-rule="evenodd" d="M5 0C2.23864 0 0 2.23864 0 5C0 7.76136 2.23864 10 5 10C7.76136 10 10 7.76136 10 5C10 2.23864 7.76136 0 5 0ZM4.77273 2.27273C4.65217 2.27273 4.53656 2.32062 4.45132 2.40586C4.36607 2.4911 4.31818 2.60672 4.31818 2.72727C4.31818 2.84783 4.36607 2.96344 4.45132 3.04868C4.53656 3.13393 4.65217 3.18182 4.77273 3.18182H5C5.12055 3.18182 5.23617 3.13393 5.32141 3.04868C5.40666 2.96344 5.45455 2.84783 5.45455 2.72727C5.45455 2.60672 5.40666 2.4911 5.32141 2.40586C5.23617 2.32062 5.12055 2.27273 5 2.27273H4.77273ZM4.09091 4.09091C3.97036 4.09091 3.85474 4.1388 3.7695 4.22404C3.68425 4.30929 3.63636 4.4249 3.63636 4.54545C3.63636 4.66601 3.68425 4.78162 3.7695 4.86687C3.85474 4.95211 3.97036 5 4.09091 5H4.54545V6.36364H4.09091C3.97036 6.36364 3.85474 6.41153 3.7695 6.49677C3.68425 6.58201 3.63636 6.69763 3.63636 6.81818C3.63636 6.93874 3.68425 7.05435 3.7695 7.13959C3.85474 7.22484 3.97036 7.27273 4.09091 7.27273H5.90909C6.02964 7.27273 6.14526 7.22484 6.2305 7.13959C6.31575 7.05435 6.36364 6.93874 6.36364 6.81818C6.36364 6.69763 6.31575 6.58201 6.2305 6.49677C6.14526 6.41153 6.02964 6.36364 5.90909 6.36364H5.45455V4.54545C5.45455 4.4249 5.40666 4.30929 5.32141 4.22404C5.23617 4.1388 5.12055 4.09091 5 4.09091H4.09091Z" fill="#863AFF"/>
</svg>
