<svg width="36" height="36" viewBox="0 0 36 36" fill="none" xmlns="http://www.w3.org/2000/svg">
<path d="M6.75 18C6.75 19.4774 7.04099 20.9403 7.60636 22.3052C8.17172 23.6701 9.00039 24.9103 10.045 25.955C11.0897 26.9996 12.3299 27.8283 13.6948 28.3936C15.0597 28.959 16.5226 29.25 18 29.25C19.4774 29.25 20.9403 28.959 22.3052 28.3936C23.6701 27.8283 24.9103 26.9996 25.955 25.955C26.9996 24.9103 27.8283 23.6701 28.3936 22.3052C28.959 20.9403 29.25 19.4774 29.25 18C29.25 16.5226 28.959 15.0597 28.3936 13.6948C27.8283 12.3299 26.9996 11.0897 25.955 10.045C24.9103 9.00039 23.6701 8.17172 22.3052 7.60636C20.9403 7.04099 19.4774 6.75 18 6.75C16.5226 6.75 15.0597 7.04099 13.6948 7.60636C12.3299 8.17172 11.0897 9.00039 10.045 10.045C9.00039 11.0897 8.17172 12.3299 7.60636 13.6948C7.04099 15.0597 6.75 16.5226 6.75 18Z" stroke="#7D01FF" stroke-width="2.2" stroke-linecap="round" stroke-linejoin="round"/>
<path d="M14.25 18C14.25 18.9946 14.6451 19.9484 15.3483 20.6517C16.0516 21.3549 17.0054 21.75 18 21.75C18.9946 21.75 19.9484 21.3549 20.6517 20.6517C21.3549 19.9484 21.75 18.9946 21.75 18M14.25 18C14.25 17.0054 14.6451 16.0516 15.3483 15.3483C16.0516 14.6451 17.0054 14.25 18 14.25C18.9946 14.25 19.9484 14.6451 20.6517 15.3483C21.3549 16.0516 21.75 17.0054 21.75 18M14.25 18H6.75M21.75 18H29.25M20 14.75L24.25 8.75M16 21.25L11.75 27.25M11.75 8.75L16 14.75M20 21.25L24.25 27.25" stroke="#7D01FF" stroke-width="2.2" stroke-linecap="round" stroke-linejoin="round"/>
</svg>
