<svg width="21" height="26" viewBox="0 0 21 26" fill="none" xmlns="http://www.w3.org/2000/svg">
<path d="M16.6243 2H7C4.23858 2 2 4.23858 2 7V19C2 21.7614 4.23858 24 7 24H16.6243" stroke="#863AFF" stroke-width="2.5" stroke-linecap="round" stroke-linejoin="round"/>
<path d="M20.4944 13.3085C20.7677 13.0351 20.7677 12.5919 20.4944 12.3185L16.0396 7.86373C15.7662 7.59036 15.323 7.59036 15.0496 7.86373C14.7763 8.1371 14.7763 8.58031 15.0496 8.85368L19.0094 12.8135L15.0496 16.7733C14.7763 17.0466 14.7763 17.4899 15.0496 17.7632C15.323 18.0366 15.7662 18.0366 16.0396 17.7632L20.4944 13.3085ZM6.875 13.5135H19.9994V12.1135H6.875V13.5135Z" fill="#863AFF"/>
</svg>
