<svg width="17" height="17" viewBox="0 0 17 17" fill="none" xmlns="http://www.w3.org/2000/svg">
<path fill-rule="evenodd" clip-rule="evenodd" d="M7.43731 1.41675C6.47723 1.41683 5.53109 1.64651 4.67783 2.08661C3.82456 2.52672 3.08892 3.1645 2.53227 3.94674C1.97562 4.72898 1.61411 5.63299 1.4779 6.58336C1.34168 7.53373 1.43472 8.50289 1.74924 9.41C2.06376 10.3171 2.59065 11.1358 3.28594 11.7979C3.98123 12.4599 4.82477 12.9461 5.74618 13.2159C6.66758 13.4856 7.64014 13.5311 8.5827 13.3486C9.52527 13.166 10.4105 12.7607 11.1646 12.1664L13.7514 14.7532C13.885 14.8823 14.0639 14.9537 14.2496 14.9521C14.4354 14.9504 14.613 14.876 14.7444 14.7446C14.8757 14.6133 14.9502 14.4356 14.9518 14.2499C14.9534 14.0642 14.882 13.8853 14.753 13.7517L12.1661 11.1648C12.866 10.277 13.3017 9.21012 13.4235 8.08622C13.5453 6.96233 13.3482 5.82685 12.8548 4.80973C12.3614 3.79262 11.5916 2.93496 10.6335 2.33491C9.67545 1.73487 8.56779 1.41667 7.43731 1.41675ZM2.83315 7.43758C2.83315 6.21648 3.31823 5.04539 4.18168 4.18194C5.04512 3.3185 6.21621 2.83341 7.43731 2.83341C8.65841 2.83341 9.8295 3.3185 10.693 4.18194C11.5564 5.04539 12.0415 6.21648 12.0415 7.43758C12.0415 8.65868 11.5564 9.82977 10.693 10.6932C9.8295 11.5567 8.65841 12.0417 7.43731 12.0417C6.21621 12.0417 5.04512 11.5567 4.18168 10.6932C3.31823 9.82977 2.83315 8.65868 2.83315 7.43758Z" fill="#F8F8F8"/>
</svg>
