<svg width="22" height="16" viewBox="0 0 22 16" fill="none" xmlns="http://www.w3.org/2000/svg">
<path fill-rule="evenodd" clip-rule="evenodd" d="M5.48016 0C5.18039 3.73977e-05 4.88447 0.0674589 4.61427 0.197278C4.34407 0.327098 4.10651 0.515995 3.91916 0.75L0.86916 4.563C0.0831603 5.545 0.78316 7 2.04016 7H3.00016V14C3.00016 14.5304 3.21087 15.0391 3.58595 15.4142C3.96102 15.7893 4.46973 16 5.00016 16H13.0002C13.5306 16 14.0393 15.7893 14.4144 15.4142C14.7894 15.0391 15.0002 14.5304 15.0002 14V7H17.0002V15C17.0002 15.2652 17.1055 15.5196 17.2931 15.7071C17.4806 15.8946 17.7349 16 18.0002 16C18.2654 16 18.5197 15.8946 18.7073 15.7071C18.8948 15.5196 19.0002 15.2652 19.0002 15V7H19.9602C21.2182 7 21.9172 5.545 21.1312 4.563L18.0812 0.751C17.8939 0.516811 17.6564 0.327724 17.3862 0.197729C17.116 0.0677338 16.82 0.000157395 16.5202 0H5.48016ZM7.00016 7C6.73494 7 6.48059 7.10536 6.29305 7.29289C6.10552 7.48043 6.00016 7.73478 6.00016 8V12C6.00016 12.2652 6.10552 12.5196 6.29305 12.7071C6.48059 12.8946 6.73494 13 7.00016 13H11.0002C11.2654 13 11.5197 12.8946 11.7073 12.7071C11.8948 12.5196 12.0002 12.2652 12.0002 12V8C12.0002 7.73478 11.8948 7.48043 11.7073 7.29289C11.5197 7.10536 11.2654 7 11.0002 7H7.00016Z" fill="#863AFF"/>
<path fill-rule="evenodd" clip-rule="evenodd" d="M5.48016 0C5.18039 3.73977e-05 4.88447 0.0674589 4.61427 0.197278C4.34407 0.327098 4.10651 0.515995 3.91916 0.75L0.86916 4.563C0.0831603 5.545 0.78316 7 2.04016 7H3.00016V14C3.00016 14.5304 3.21087 15.0391 3.58595 15.4142C3.96102 15.7893 4.46973 16 5.00016 16H13.0002C13.5306 16 14.0393 15.7893 14.4144 15.4142C14.7894 15.0391 15.0002 14.5304 15.0002 14V7H17.0002V15C17.0002 15.2652 17.1055 15.5196 17.2931 15.7071C17.4806 15.8946 17.7349 16 18.0002 16C18.2654 16 18.5197 15.8946 18.7073 15.7071C18.8948 15.5196 19.0002 15.2652 19.0002 15V7H19.9602C21.2182 7 21.9172 5.545 21.1312 4.563L18.0812 0.751C17.8939 0.516811 17.6564 0.327724 17.3862 0.197729C17.116 0.0677338 16.82 0.000157395 16.5202 0H5.48016ZM7.00016 7C6.73494 7 6.48059 7.10536 6.29305 7.29289C6.10552 7.48043 6.00016 7.73478 6.00016 8V12C6.00016 12.2652 6.10552 12.5196 6.29305 12.7071C6.48059 12.8946 6.73494 13 7.00016 13H11.0002C11.2654 13 11.5197 12.8946 11.7073 12.7071C11.8948 12.5196 12.0002 12.2652 12.0002 12V8C12.0002 7.73478 11.8948 7.48043 11.7073 7.29289C11.5197 7.10536 11.2654 7 11.0002 7H7.00016Z" fill="url(#paint0_linear_1368_1396)" fill-opacity="0.5" style="mix-blend-mode:overlay"/>
<defs>
<linearGradient id="paint0_linear_1368_1396" x1="11.0003" y1="0" x2="11.0003" y2="16" gradientUnits="userSpaceOnUse">
<stop stop-color="white"/>
<stop offset="1" stop-color="white" stop-opacity="0"/>
</linearGradient>
</defs>
</svg>
