<svg width="29" height="25" viewBox="0 0 29 25" fill="none" xmlns="http://www.w3.org/2000/svg">
<path d="M0 0.954336C0 1.47518 0.427275 1.92061 0.93014 1.92061H5.17662L7.18701 15.8825C7.45131 17.6881 8.39324 18.8198 10.2155 18.8198H24.879C25.3684 18.8198 25.7957 18.4129 25.7957 17.8665C25.7957 17.3197 25.3684 16.9128 24.879 16.9128H10.4288C9.71259 16.9128 9.27299 16.4038 9.15987 15.6285L8.95883 14.2933H24.9036C26.7382 14.2933 27.6806 13.1486 27.9444 11.3305L28.9496 4.60349C28.9763 4.44375 28.9931 4.28249 29 4.12063C29 3.51027 28.5475 3.09034 27.8565 3.09034H7.35052L7.09909 1.47572C6.97364 0.496429 6.62195 0 5.34067 0H0.929604C0.427275 0 0 0.445429 0 0.954336ZM9.16041 22.9399C9.16041 24.0971 10.0653 24.9999 11.2083 24.9999C11.4763 25.0022 11.742 24.9504 11.9899 24.8477C12.2379 24.7449 12.4632 24.5933 12.6526 24.4016C12.8421 24.2098 12.992 23.9818 13.0935 23.7309C13.195 23.4799 13.2461 23.211 13.2439 22.9399C13.245 22.669 13.1932 22.4006 13.0913 22.1502C12.9894 21.8997 12.8395 21.6722 12.6502 21.4807C12.461 21.2891 12.2361 21.1374 11.9886 21.0343C11.7412 20.9312 11.476 20.8787 11.2083 20.8798C10.0653 20.8798 9.16041 21.7957 9.16041 22.9399ZM20.9086 22.9399C20.9086 24.0971 21.8259 24.9999 22.9565 24.9999C24.1 24.9999 25.0044 24.0971 25.0044 22.9399C25.0044 21.7951 24.1 20.8798 22.9565 20.8798C21.8259 20.8798 20.9086 21.7957 20.9086 22.9399Z" fill="#7D01FF"/>
</svg>