<svg width="5" height="7" viewBox="0 0 5 7" fill="none" xmlns="http://www.w3.org/2000/svg">
<path d="M1.63096 7C1.59288 7.00003 1.55525 6.99151 1.52073 6.97502C1.4862 6.95853 1.45561 6.93448 1.43111 6.90455C1.4066 6.87463 1.38878 6.83956 1.37889 6.80181C1.369 6.76406 1.36728 6.72455 1.37385 6.68604V6.68444L1.77315 4.43351H0.227251C0.184341 4.4335 0.14231 4.42103 0.106018 4.39753C0.0697256 4.37402 0.0406559 4.34046 0.0221707 4.3007C0.00368564 4.26095 -0.00345962 4.21664 0.00156154 4.17289C0.0065827 4.12914 0.023565 4.08775 0.0505444 4.05349L3.16378 0.102553C3.19922 0.0563741 3.24842 0.0233814 3.30385 0.00862C3.35928 -0.00614141 3.41789 -0.00185899 3.47072 0.0208124C3.52356 0.0434838 3.56771 0.0832963 3.59642 0.134162C3.62512 0.185027 3.63681 0.244146 3.6297 0.302477C3.6297 0.306852 3.62856 0.31108 3.62785 0.315455L3.22714 2.56697H4.77275C4.81566 2.56697 4.85769 2.57945 4.89398 2.60295C4.93027 2.62645 4.95934 2.66002 4.97783 2.69977C4.99631 2.73953 5.00346 2.78384 4.99844 2.82759C4.99342 2.87134 4.97644 2.91273 4.94946 2.94698L1.83579 6.89792C1.81132 6.92966 1.7802 6.95532 1.74474 6.97299C1.70927 6.99066 1.67038 6.9999 1.63096 7Z" fill="#FF3A3A"/>
</svg>
