<svg width="41" height="41" viewBox="0 0 41 41" fill="none" xmlns="http://www.w3.org/2000/svg">
<g filter="url(#filter0_d_1540_531)">
<path d="M27.0789 15.6194C26.3086 14.5558 25.2971 13.6902 24.1273 13.0936C22.9575 12.497 21.6629 12.1865 20.3497 12.1875C16.0533 12.1875 12.5201 15.4452 12.0823 19.626L12 20.4129L13.5754 20.5784L13.657 19.7907C13.8044 18.3972 14.3831 17.0845 15.3124 16.0357C16.2417 14.9869 17.4752 14.2543 18.8408 13.9402C20.2064 13.626 21.636 13.746 22.9302 14.2833C24.2243 14.8206 25.3185 15.7485 26.06 16.9375H23.1205V18.5208H28.6622V12.9792H27.0789V15.6194ZM27.124 20.4216L27.0417 21.2093C26.894 22.6026 26.3152 23.915 25.386 24.9636C24.4567 26.0122 23.2234 26.7446 21.858 27.0587C20.4926 27.3728 19.0632 27.253 17.7692 26.7159C16.4752 26.1788 15.3811 25.2512 14.6394 24.0625H17.5789V22.4792H12.0372V28.0208H13.6205V25.3806C14.3908 26.4442 15.4023 27.3098 16.5721 27.9064C17.7419 28.503 19.0366 28.8135 20.3497 28.8125C24.6453 28.8125 28.1793 25.5548 28.6163 21.374L28.6986 20.5871L27.124 20.4216Z" fill="#863AFF"/>
<path d="M27.0789 15.6194C26.3086 14.5558 25.2971 13.6902 24.1273 13.0936C22.9575 12.497 21.6629 12.1865 20.3497 12.1875C16.0533 12.1875 12.5201 15.4452 12.0823 19.626L12 20.4129L13.5754 20.5784L13.657 19.7907C13.8044 18.3972 14.3831 17.0845 15.3124 16.0357C16.2417 14.9869 17.4752 14.2543 18.8408 13.9402C20.2064 13.626 21.636 13.746 22.9302 14.2833C24.2243 14.8206 25.3185 15.7485 26.06 16.9375H23.1205V18.5208H28.6622V12.9792H27.0789V15.6194ZM27.124 20.4216L27.0417 21.2093C26.894 22.6026 26.3152 23.915 25.386 24.9636C24.4567 26.0122 23.2234 26.7446 21.858 27.0587C20.4926 27.3728 19.0632 27.253 17.7692 26.7159C16.4752 26.1788 15.3811 25.2512 14.6394 24.0625H17.5789V22.4792H12.0372V28.0208H13.6205V25.3806C14.3908 26.4442 15.4023 27.3098 16.5721 27.9064C17.7419 28.503 19.0366 28.8135 20.3497 28.8125C24.6453 28.8125 28.1793 25.5548 28.6163 21.374L28.6986 20.5871L27.124 20.4216Z" fill="url(#paint0_linear_1540_531)" fill-opacity="0.5" style="mix-blend-mode:overlay"/>
</g>
<defs>
<filter id="filter0_d_1540_531" x="0" y="0.1875" width="40.6992" height="40.625" filterUnits="userSpaceOnUse" color-interpolation-filters="sRGB">
<feFlood flood-opacity="0" result="BackgroundImageFix"/>
<feColorMatrix in="SourceAlpha" type="matrix" values="0 0 0 0 0 0 0 0 0 0 0 0 0 0 0 0 0 0 127 0" result="hardAlpha"/>
<feOffset/>
<feGaussianBlur stdDeviation="6"/>
<feComposite in2="hardAlpha" operator="out"/>
<feColorMatrix type="matrix" values="0 0 0 0 0.524295 0 0 0 0 0.227358 0 0 0 0 1 0 0 0 0.35 0"/>
<feBlend mode="plus-lighter" in2="BackgroundImageFix" result="effect1_dropShadow_1540_531"/>
<feBlend mode="normal" in="SourceGraphic" in2="effect1_dropShadow_1540_531" result="shape"/>
</filter>
<linearGradient id="paint0_linear_1540_531" x1="20.3493" y1="12.1875" x2="20.3493" y2="28.8125" gradientUnits="userSpaceOnUse">
<stop stop-color="white"/>
<stop offset="0.98" stop-color="white" stop-opacity="0"/>
</linearGradient>
</defs>
</svg>
