<svg width="9" height="8" viewBox="0 0 9 8" fill="none" xmlns="http://www.w3.org/2000/svg">
<path fill-rule="evenodd" clip-rule="evenodd" d="M8.88719 3.68679C8.95943 3.7699 9 3.88255 9 4C9 4.11745 8.95943 4.2301 8.88719 4.31321L5.80136 7.85893C5.76605 7.90248 5.72346 7.93741 5.67615 7.96163C5.62883 7.98586 5.57775 7.99888 5.52596 7.99993C5.47417 8.00098 5.42273 7.99003 5.3747 7.96774C5.32667 7.94545 5.28304 7.91227 5.24641 7.87018C5.20978 7.8281 5.1809 7.77796 5.1615 7.72278C5.1421 7.66759 5.13258 7.60848 5.13349 7.54897C5.1344 7.48945 5.14574 7.43076 5.16682 7.3764C5.1879 7.32203 5.2183 7.2731 5.2562 7.23252L7.68372 4.44322L0.385729 4.44322C0.283427 4.44322 0.185315 4.39652 0.112977 4.3134C0.0406389 4.23028 0 4.11755 0 4C0 3.88245 0.0406389 3.76972 0.112977 3.6866C0.185315 3.60348 0.283427 3.55678 0.385729 3.55678L7.68372 3.55678L5.2562 0.767478C5.2183 0.726902 5.1879 0.67797 5.16682 0.623603C5.14574 0.569235 5.1344 0.510546 5.13349 0.451035C5.13258 0.391524 5.1421 0.332411 5.1615 0.277223C5.1809 0.222035 5.20978 0.171902 5.24641 0.129815C5.28304 0.0877278 5.32667 0.0545489 5.3747 0.0322575C5.42273 0.00996606 5.47417 -0.000981021 5.52596 6.89777e-05C5.57775 0.00111898 5.62883 0.0141445 5.67615 0.0383689C5.72346 0.0625933 5.76605 0.09752 5.80136 0.141066L8.88719 3.68679Z" fill="#F8F8F8"/>
</svg>
