<svg width="38" height="44" viewBox="0 0 38 44" fill="none" xmlns="http://www.w3.org/2000/svg">
<g opacity="0.3" filter="url(#filter0_f_1557_252)">
<path d="M23 24.392C23 24.9467 22.8599 25.4693 22.5798 25.96C22.31 26.44 21.9053 26.84 21.3658 27.16C20.8366 27.4693 20.2088 27.6507 19.4825 27.704V29H18.4864V27.688C17.4488 27.592 16.6135 27.272 15.9805 26.728C15.3476 26.1733 15.0208 25.4267 15 24.488H17.3346C17.3969 25.256 17.7808 25.72 18.4864 25.88V22.824C17.7393 22.632 17.1375 22.44 16.6809 22.248C16.2244 22.056 15.8301 21.7467 15.4981 21.32C15.166 20.8933 15 20.312 15 19.576C15 18.648 15.3217 17.8907 15.965 17.304C16.6187 16.7173 17.4591 16.3813 18.4864 16.296V15H19.4825V16.296C20.4786 16.3813 21.2724 16.6907 21.8638 17.224C22.4656 17.7573 22.8029 18.4933 22.8755 19.432H20.5253C20.4942 19.1227 20.3852 18.856 20.1984 18.632C20.022 18.3973 19.7834 18.232 19.4825 18.136V21.16C20.2607 21.3627 20.8729 21.56 21.3191 21.752C21.7756 21.9333 22.1699 22.2373 22.5019 22.664C22.834 23.08 23 23.656 23 24.392ZM17.2724 19.464C17.2724 19.816 17.3761 20.104 17.5837 20.328C17.7912 20.5413 18.0921 20.7173 18.4864 20.856V18.088C18.1128 18.1413 17.8171 18.2853 17.5992 18.52C17.3813 18.7547 17.2724 19.0693 17.2724 19.464ZM19.4825 25.912C19.8768 25.8373 20.1829 25.672 20.4008 25.416C20.6291 25.16 20.7432 24.8507 20.7432 24.488C20.7432 24.136 20.6342 23.8533 20.4163 23.64C20.1984 23.4267 19.8872 23.2507 19.4825 23.112V25.912Z" fill="#863AFF"/>
<path d="M23 24.392C23 24.9467 22.8599 25.4693 22.5798 25.96C22.31 26.44 21.9053 26.84 21.3658 27.16C20.8366 27.4693 20.2088 27.6507 19.4825 27.704V29H18.4864V27.688C17.4488 27.592 16.6135 27.272 15.9805 26.728C15.3476 26.1733 15.0208 25.4267 15 24.488H17.3346C17.3969 25.256 17.7808 25.72 18.4864 25.88V22.824C17.7393 22.632 17.1375 22.44 16.6809 22.248C16.2244 22.056 15.8301 21.7467 15.4981 21.32C15.166 20.8933 15 20.312 15 19.576C15 18.648 15.3217 17.8907 15.965 17.304C16.6187 16.7173 17.4591 16.3813 18.4864 16.296V15H19.4825V16.296C20.4786 16.3813 21.2724 16.6907 21.8638 17.224C22.4656 17.7573 22.8029 18.4933 22.8755 19.432H20.5253C20.4942 19.1227 20.3852 18.856 20.1984 18.632C20.022 18.3973 19.7834 18.232 19.4825 18.136V21.16C20.2607 21.3627 20.8729 21.56 21.3191 21.752C21.7756 21.9333 22.1699 22.2373 22.5019 22.664C22.834 23.08 23 23.656 23 24.392ZM17.2724 19.464C17.2724 19.816 17.3761 20.104 17.5837 20.328C17.7912 20.5413 18.0921 20.7173 18.4864 20.856V18.088C18.1128 18.1413 17.8171 18.2853 17.5992 18.52C17.3813 18.7547 17.2724 19.0693 17.2724 19.464ZM19.4825 25.912C19.8768 25.8373 20.1829 25.672 20.4008 25.416C20.6291 25.16 20.7432 24.8507 20.7432 24.488C20.7432 24.136 20.6342 23.8533 20.4163 23.64C20.1984 23.4267 19.8872 23.2507 19.4825 23.112V25.912Z" fill="url(#paint0_linear_1557_252)" fill-opacity="0.5" style="mix-blend-mode:overlay"/>
</g>
<path d="M23 24.392C23 24.9467 22.8599 25.4693 22.5798 25.96C22.31 26.44 21.9053 26.84 21.3658 27.16C20.8366 27.4693 20.2088 27.6507 19.4825 27.704V29H18.4864V27.688C17.4488 27.592 16.6135 27.272 15.9805 26.728C15.3476 26.1733 15.0208 25.4267 15 24.488H17.3346C17.3969 25.256 17.7808 25.72 18.4864 25.88V22.824C17.7393 22.632 17.1375 22.44 16.6809 22.248C16.2244 22.056 15.8301 21.7467 15.4981 21.32C15.166 20.8933 15 20.312 15 19.576C15 18.648 15.3217 17.8907 15.965 17.304C16.6187 16.7173 17.4591 16.3813 18.4864 16.296V15H19.4825V16.296C20.4786 16.3813 21.2724 16.6907 21.8638 17.224C22.4656 17.7573 22.8029 18.4933 22.8755 19.432H20.5253C20.4942 19.1227 20.3852 18.856 20.1984 18.632C20.022 18.3973 19.7834 18.232 19.4825 18.136V21.16C20.2607 21.3627 20.8729 21.56 21.3191 21.752C21.7756 21.9333 22.1699 22.2373 22.5019 22.664C22.834 23.08 23 23.656 23 24.392ZM17.2724 19.464C17.2724 19.816 17.3761 20.104 17.5837 20.328C17.7912 20.5413 18.0921 20.7173 18.4864 20.856V18.088C18.1128 18.1413 17.8171 18.2853 17.5992 18.52C17.3813 18.7547 17.2724 19.0693 17.2724 19.464ZM19.4825 25.912C19.8768 25.8373 20.1829 25.672 20.4008 25.416C20.6291 25.16 20.7432 24.8507 20.7432 24.488C20.7432 24.136 20.6342 23.8533 20.4163 23.64C20.1984 23.4267 19.8872 23.2507 19.4825 23.112V25.912Z" fill="#863AFF"/>
<path d="M23 24.392C23 24.9467 22.8599 25.4693 22.5798 25.96C22.31 26.44 21.9053 26.84 21.3658 27.16C20.8366 27.4693 20.2088 27.6507 19.4825 27.704V29H18.4864V27.688C17.4488 27.592 16.6135 27.272 15.9805 26.728C15.3476 26.1733 15.0208 25.4267 15 24.488H17.3346C17.3969 25.256 17.7808 25.72 18.4864 25.88V22.824C17.7393 22.632 17.1375 22.44 16.6809 22.248C16.2244 22.056 15.8301 21.7467 15.4981 21.32C15.166 20.8933 15 20.312 15 19.576C15 18.648 15.3217 17.8907 15.965 17.304C16.6187 16.7173 17.4591 16.3813 18.4864 16.296V15H19.4825V16.296C20.4786 16.3813 21.2724 16.6907 21.8638 17.224C22.4656 17.7573 22.8029 18.4933 22.8755 19.432H20.5253C20.4942 19.1227 20.3852 18.856 20.1984 18.632C20.022 18.3973 19.7834 18.232 19.4825 18.136V21.16C20.2607 21.3627 20.8729 21.56 21.3191 21.752C21.7756 21.9333 22.1699 22.2373 22.5019 22.664C22.834 23.08 23 23.656 23 24.392ZM17.2724 19.464C17.2724 19.816 17.3761 20.104 17.5837 20.328C17.7912 20.5413 18.0921 20.7173 18.4864 20.856V18.088C18.1128 18.1413 17.8171 18.2853 17.5992 18.52C17.3813 18.7547 17.2724 19.0693 17.2724 19.464ZM19.4825 25.912C19.8768 25.8373 20.1829 25.672 20.4008 25.416C20.6291 25.16 20.7432 24.8507 20.7432 24.488C20.7432 24.136 20.6342 23.8533 20.4163 23.64C20.1984 23.4267 19.8872 23.2507 19.4825 23.112V25.912Z" fill="url(#paint1_linear_1557_252)" fill-opacity="0.5" style="mix-blend-mode:overlay"/>
<defs>
<filter id="filter0_f_1557_252" x="0.7" y="0.7" width="36.6" height="42.6" filterUnits="userSpaceOnUse" color-interpolation-filters="sRGB">
<feFlood flood-opacity="0" result="BackgroundImageFix"/>
<feBlend mode="normal" in="SourceGraphic" in2="BackgroundImageFix" result="shape"/>
<feGaussianBlur stdDeviation="7.15" result="effect1_foregroundBlur_1557_252"/>
</filter>
<linearGradient id="paint0_linear_1557_252" x1="19" y1="15" x2="19" y2="29" gradientUnits="userSpaceOnUse">
<stop stop-color="white"/>
<stop offset="1" stop-color="white" stop-opacity="0"/>
</linearGradient>
<linearGradient id="paint1_linear_1557_252" x1="19" y1="15" x2="19" y2="29" gradientUnits="userSpaceOnUse">
<stop stop-color="white"/>
<stop offset="1" stop-color="white" stop-opacity="0"/>
</linearGradient>
</defs>
</svg>
