<svg width="22" height="20" viewBox="0 0 22 20" fill="none" xmlns="http://www.w3.org/2000/svg">
<g style="mix-blend-mode:overlay">
<path d="M16.2615 4.90573e-09C17.1304 -4.4865e-05 17.9665 0.307711 18.5987 0.860299C19.231 1.41289 19.6115 2.16853 19.6625 2.97263L19.6682 3.15789V13.6842H20.5198C21.2545 13.6842 21.8598 14.2021 21.9325 14.8653L21.9393 15V16.8421C21.9393 17.6476 21.6073 18.4226 21.0112 19.0087C20.4151 19.5947 19.5999 19.9475 18.7324 19.9947L18.5326 20H7.17692C6.30798 20 5.47185 19.6923 4.83963 19.1397C4.20741 18.5871 3.82688 17.8315 3.7759 17.0274L3.77022 16.8421V6.31579H1.78298C1.43157 6.31594 1.0926 6.19525 0.831645 5.97708C0.570694 5.75891 0.406323 5.45877 0.370339 5.13474L0.363525 5V3.15789C0.363477 2.35241 0.69548 1.57735 1.29161 0.991304C1.88773 0.405256 2.70291 0.0525184 3.57036 0.00526328L3.77022 4.90573e-09H16.2615ZM16.2615 2.10526H6.04136V16.8421C6.04136 17.1213 6.161 17.389 6.37396 17.5864C6.58692 17.7838 6.87575 17.8947 7.17692 17.8947C7.47809 17.8947 7.76693 17.7838 7.97989 17.5864C8.19285 17.389 8.31249 17.1213 8.31249 16.8421V15C8.31249 14.2737 8.94841 13.6842 9.73195 13.6842H17.397V3.15789C17.397 2.87872 17.2774 2.61098 17.0644 2.41357C16.8515 2.21617 16.5626 2.10526 16.2615 2.10526ZM19.6682 15.7895H10.5836V16.8421C10.5836 17.2105 10.5155 17.5653 10.3906 17.8947H18.5326C18.8338 17.8947 19.1226 17.7838 19.3356 17.5864C19.5485 17.389 19.6682 17.1213 19.6682 16.8421V15.7895ZM11.7192 9.47368C12.0204 9.47368 12.3092 9.58459 12.5222 9.78199C12.7351 9.9794 12.8548 10.2471 12.8548 10.5263C12.8548 10.8055 12.7351 11.0732 12.5222 11.2706C12.3092 11.468 12.0204 11.5789 11.7192 11.5789H9.44806C9.14688 11.5789 8.85805 11.468 8.64509 11.2706C8.43213 11.0732 8.31249 10.8055 8.31249 10.5263C8.31249 10.2471 8.43213 9.9794 8.64509 9.78199C8.85805 9.58459 9.14688 9.47368 9.44806 9.47368H11.7192ZM13.9903 5.26316C14.2915 5.26316 14.5803 5.37406 14.7933 5.57147C15.0062 5.76887 15.1259 6.03661 15.1259 6.31579C15.1259 6.59496 15.0062 6.86271 14.7933 7.06011C14.5803 7.25752 14.2915 7.36842 13.9903 7.36842H9.44806C9.14688 7.36842 8.85805 7.25752 8.64509 7.06011C8.43213 6.86271 8.31249 6.59496 8.31249 6.31579C8.31249 6.03661 8.43213 5.76887 8.64509 5.57147C8.85805 5.37406 9.14688 5.26316 9.44806 5.26316H13.9903ZM3.77022 2.10526C3.49209 2.1053 3.22363 2.19995 3.01579 2.37128C2.80794 2.5426 2.67515 2.77868 2.64261 3.03474L2.63466 3.15789V4.21053H3.77022V2.10526Z" fill="#5f4c94"/>
</g>
</svg>