<svg width="11" height="11" viewBox="0 0 11 11" fill="none" xmlns="http://www.w3.org/2000/svg">
<path d="M1.375 9.625H11V11H0V0H1.375V9.625ZM3.09375 8.9375C2.95436 8.93778 2.81635 8.90979 2.68808 8.85524C2.5598 8.80068 2.44392 8.72069 2.34743 8.62008C2.25094 8.51948 2.17585 8.40036 2.12669 8.26992C2.07754 8.13949 2.05533 8.00043 2.06143 7.86117C2.06752 7.72191 2.10178 7.58533 2.16214 7.45969C2.22251 7.33404 2.30772 7.22193 2.41262 7.13014C2.51753 7.03835 2.63996 6.96879 2.77251 6.92564C2.90506 6.8825 3.04498 6.86667 3.18381 6.87912L4.29206 5.03181C4.19073 4.87619 4.1333 4.69609 4.12583 4.51053C4.11837 4.32497 4.16115 4.14084 4.24967 3.97758C4.33818 3.81432 4.46914 3.67799 4.62871 3.58299C4.78828 3.48799 4.97054 3.43784 5.15625 3.43784C5.34196 3.43784 5.52422 3.48799 5.68379 3.58299C5.84336 3.67799 5.97432 3.81432 6.06283 3.97758C6.15135 4.14084 6.19413 4.32497 6.18667 4.51053C6.17921 4.69609 6.12177 4.87619 6.02044 5.03181L7.12869 6.87912C7.18127 6.87439 7.23415 6.87393 7.28681 6.87775L9.11694 3.67538C8.98542 3.48273 8.9231 3.25119 8.94015 3.01855C8.9572 2.78592 9.05261 2.56594 9.21081 2.39453C9.369 2.22311 9.58064 2.11039 9.81116 2.07477C10.0417 2.03915 10.2775 2.08274 10.48 2.19841C10.6826 2.31408 10.8399 2.495 10.9264 2.71164C11.0129 2.92828 11.0234 3.16783 10.9561 3.39119C10.8889 3.61455 10.7479 3.80851 10.5562 3.94141C10.3645 4.07432 10.1334 4.13831 9.90069 4.12294L8.07056 7.32531C8.17571 7.47953 8.23704 7.6594 8.24799 7.84573C8.25895 8.03207 8.21913 8.21789 8.13277 8.38336C8.04641 8.54884 7.91676 8.68778 7.75765 8.78536C7.59853 8.88295 7.41591 8.93551 7.22926 8.93746C7.04262 8.9394 6.85894 8.89065 6.69783 8.7964C6.53671 8.70216 6.40419 8.56595 6.31441 8.40231C6.22463 8.23866 6.18094 8.05372 6.18801 7.86719C6.19508 7.68067 6.25265 7.49956 6.35456 7.34319L5.24631 5.49587C5.1864 5.50143 5.1261 5.50143 5.06619 5.49587L3.95794 7.34319C4.05936 7.49882 4.11687 7.67895 4.12438 7.86456C4.13189 8.05017 4.08912 8.23437 4.0006 8.39768C3.91207 8.561 3.78108 8.69737 3.62146 8.79238C3.46184 8.8874 3.27951 8.93754 3.09375 8.9375Z" fill="#F8F8F8"/>
</svg>
