<svg width="29" height="26" viewBox="0 0 29 26" fill="none" xmlns="http://www.w3.org/2000/svg">
<path d="M24.2883 16.9519C24.7791 15.735 25.0455 14.4322 25.0455 13.0005C25.0455 11.9697 24.8913 10.9819 24.6248 10.0656C23.7134 10.2804 22.7599 10.3949 21.7644 10.3949C19.7256 10.3972 17.7161 9.89888 15.9054 8.94211C14.0947 7.98533 12.5358 6.5981 11.3602 4.89736C10.1025 8.0043 7.73007 10.5034 4.72781 11.8838C4.67172 12.2418 4.67172 12.6283 4.67172 13.0005C4.67172 14.3674 4.9354 15.7208 5.44769 16.9836C5.95998 18.2463 6.71086 19.3937 7.65745 20.3602C9.56917 22.3121 12.162 23.4087 14.8656 23.4087C16.3379 23.4087 17.7541 23.0794 19.0301 22.4924C19.8294 24.0529 20.1939 24.826 20.1659 24.826C17.8663 25.6135 16.0855 26 14.8656 26C11.4723 26 8.23328 24.6399 5.84956 22.1918C4.39969 20.716 3.32193 18.9033 2.70866 16.909H0.84375V10.3949H2.37213C2.83519 8.09355 3.89981 5.9631 5.45301 4.22962C7.00621 2.49614 8.99005 1.2243 11.194 0.549063C13.398 -0.126177 15.7399 -0.179632 17.9713 0.39437C20.2026 0.968372 22.2402 2.14842 23.8677 3.8093C25.6347 5.60639 26.84 7.89825 27.3311 10.3949H28.8875V16.909H28.8034L23.8116 21.5905L16.38 20.7315V18.3406H23.1526L24.2883 16.9519ZM11.0377 12.6713C11.4583 12.6713 11.8649 12.8431 12.1594 13.158C12.4553 13.4626 12.6214 13.8743 12.6214 14.3034C12.6214 14.7324 12.4553 15.1441 12.1594 15.4487C11.8649 15.7493 11.4583 15.9211 11.0377 15.9211C10.1543 15.9211 9.43916 15.2053 9.43916 14.3034C9.43916 13.4014 10.1543 12.6713 11.0377 12.6713ZM18.6796 12.6713C19.563 12.6713 20.264 13.4014 20.264 14.3034C20.264 15.2053 19.563 15.9211 18.6796 15.9211C17.7962 15.9211 17.0811 15.2053 17.0811 14.3034C17.0811 13.8705 17.2495 13.4554 17.5493 13.1493C17.849 12.8432 18.2556 12.6713 18.6796 12.6713Z" fill="#59FF56"/>
</svg>
