<svg width="43" height="43" viewBox="0 0 43 43" fill="none" xmlns="http://www.w3.org/2000/svg">
<path d="M17.3011 24.9671C17.1906 24.9671 17.1011 24.8775 17.1011 24.7671V17.0698C17.1011 16.9593 17.1906 16.8698 17.3011 16.8698H18.6243C18.7347 16.8698 18.8243 16.9593 18.8243 17.0698V20.0107C18.8243 20.1212 18.9138 20.2107 19.0243 20.2107H22.1224C22.2329 20.2107 22.3224 20.1212 22.3224 20.0107V17.0698C22.3224 16.9593 22.412 16.8698 22.5224 16.8698H23.8416C23.9521 16.8698 24.0416 16.9593 24.0416 17.0698V24.7671C24.0416 24.8775 23.9521 24.9671 23.8416 24.9671H22.5224C22.412 24.9671 22.3224 24.8775 22.3224 24.7671V21.8222C22.3224 21.7117 22.2329 21.6222 22.1224 21.6222H19.0243C18.9138 21.6222 18.8243 21.7117 18.8243 21.8222V24.7671C18.8243 24.8775 18.7347 24.9671 18.6243 24.9671H17.3011Z" fill="#EB5656"/>
<path d="M35.7261 21.0577C35.7261 29.1349 29.1782 35.6827 21.1011 35.6827C13.0239 35.6827 6.47607 29.1349 6.47607 21.0577C6.47607 12.9806 13.0239 6.43274 21.1011 6.43274C29.1782 6.43274 35.7261 12.9806 35.7261 21.0577Z" fill="url(#paint0_linear_1_1270)" stroke="white" stroke-width="0.75"/>
<path d="M6.14197 21.391H11.1009V22.0577H6.17661L6.14197 21.391Z" fill="white"/>
<path d="M6.15705 20.0576H11.101V20.7243H6.15686L6.15705 20.0576Z" fill="white"/>
<path d="M31.101 21.391H35.9282V22.0262L31.101 22.0577V21.391Z" fill="white"/>
<path d="M31.101 20.0576H36.02V20.7243H31.101V20.0576Z" fill="white"/>
<rect x="21.4343" y="36.0576" width="4.96667" height="0.666667" transform="rotate(-90 21.4343 36.0576)" fill="white"/>
<rect x="20.101" y="36.0576" width="4.96667" height="0.666667" transform="rotate(-90 20.101 36.0576)" fill="white"/>
<rect x="21.4343" y="11.2242" width="4.96667" height="0.666667" transform="rotate(-90 21.4343 11.2242)" fill="white"/>
<rect x="20.101" y="11.2242" width="4.96667" height="0.666667" transform="rotate(-90 20.101 11.2242)" fill="white"/>
<rect x="10.7181" y="31.8713" width="5" height="0.666667" transform="rotate(-45 10.7181 31.8713)" fill="white"/>
<rect x="9.77539" y="30.9286" width="5" height="1.74843" transform="rotate(-45 9.77539 30.9286)" fill="white"/>
<path d="M28.3958 14.1936L31.8091 10.7802L32.2583 11.2294L28.8672 14.665L28.3958 14.1936Z" fill="white"/>
<path d="M27.4799 13.2777L30.8932 9.86433L32.2152 11.1863L28.8673 14.6651L27.4799 13.2777Z" fill="white"/>
<path d="M27.453 13.2509L30.9313 9.77257L31.4027 10.244L27.9244 13.7223L27.453 13.2509Z" fill="white"/>
<rect x="31.2576" y="32.0737" width="5" height="1.6196" transform="rotate(-135 31.2576 32.0737)" fill="white"/>
<rect x="30.9885" y="32.3428" width="5" height="0.666667" transform="rotate(-135 30.9885 32.3428)" fill="white"/>
<path d="M13.4835 14.4926L10.1012 11.058L11.3429 9.81632L14.7252 13.2509L13.4835 14.4926Z" fill="white"/>
<path d="M13.3109 14.6652L10.101 11.5582L10.6012 11.058L13.7823 14.1938L13.3109 14.6652Z" fill="white"/>
<circle cx="21.1011" cy="21.0577" r="10.25" fill="url(#paint1_linear_1_1270)" stroke="white" stroke-width="0.5"/>
<g filter="url(#filter0_d_1_1270)">
<path d="M17.2029 18.9668C17.0925 18.9668 17.0029 18.8773 17.0029 18.7668V17.2577C17.0029 17.1473 17.0925 17.0577 17.2029 17.0577H24.3882C24.4986 17.0577 24.5882 17.1473 24.5882 17.2577V18.7668C24.5882 18.8773 24.4986 18.9668 24.3882 18.9668H22.1632C22.0527 18.9668 21.9632 19.0564 21.9632 19.1668V25.585C21.9632 25.6955 21.8736 25.785 21.7632 25.785H19.8279C19.7175 25.785 19.6279 25.6955 19.6279 25.585V19.1668C19.6279 19.0564 19.5384 18.9668 19.4279 18.9668H17.2029Z" fill="#D42626"/>
</g>
<rect x="9.10107" y="25.0577" width="1" height="1" rx="0.5" fill="white"/>
<rect width="1" height="1" rx="0.5" transform="matrix(-1 0 0 1 26.1011 32.0577)" fill="white"/>
<rect width="1" height="1" rx="0.5" transform="matrix(1 0 0 -1 16.1011 10.0577)" fill="white"/>
<rect x="33.1011" y="17.0577" width="1" height="1" rx="0.5" transform="rotate(180 33.1011 17.0577)" fill="white"/>
<path d="M25.5029 10.0577L25.4304 9.9858C25.1729 9.73131 25.0029 9.56292 25.0029 9.35747C25.0029 9.18907 25.1239 9.05774 25.2779 9.05774C25.3649 9.05774 25.4484 9.10188 25.5029 9.17109C25.5574 9.10188 25.6409 9.05774 25.7279 9.05774C25.8819 9.05774 26.0029 9.18907 26.0029 9.35747C26.0029 9.56292 25.8329 9.73131 25.5754 9.9858L25.5029 10.0577Z" fill="white"/>
<path d="M9.50293 17.0577L9.43043 16.9858C9.17293 16.7313 9.00293 16.5629 9.00293 16.3575C9.00293 16.1891 9.12393 16.0577 9.27793 16.0577C9.36493 16.0577 9.44843 16.1019 9.50293 16.1711C9.55743 16.1019 9.64093 16.0577 9.72793 16.0577C9.88193 16.0577 10.0029 16.1891 10.0029 16.3575C10.0029 16.5629 9.83293 16.7313 9.57543 16.9858L9.50293 17.0577Z" fill="white"/>
<path d="M16.5029 33.0577L16.4304 32.9858C16.1729 32.7313 16.0029 32.5629 16.0029 32.3575C16.0029 32.1891 16.1239 32.0577 16.2779 32.0577C16.3649 32.0577 16.4484 32.1019 16.5029 32.1711C16.5574 32.1019 16.6409 32.0577 16.7279 32.0577C16.8819 32.0577 17.0029 32.1891 17.0029 32.3575C17.0029 32.5629 16.8329 32.7313 16.5754 32.9858L16.5029 33.0577Z" fill="white"/>
<path d="M32.5029 26.0577L32.4304 25.9858C32.1729 25.7313 32.0029 25.5629 32.0029 25.3575C32.0029 25.1891 32.1239 25.0577 32.2779 25.0577C32.3649 25.0577 32.4484 25.1019 32.5029 25.1711C32.5574 25.1019 32.6409 25.0577 32.7279 25.0577C32.8819 25.0577 33.0029 25.1891 33.0029 25.3575C33.0029 25.5629 32.8329 25.7313 32.5754 25.9858L32.5029 26.0577Z" fill="white"/>
<defs>
<filter id="filter0_d_1_1270" x="17.0029" y="17.0577" width="7.58521" height="9.02729" filterUnits="userSpaceOnUse" color-interpolation-filters="sRGB">
<feFlood flood-opacity="0" result="BackgroundImageFix"/>
<feColorMatrix in="SourceAlpha" type="matrix" values="0 0 0 0 0 0 0 0 0 0 0 0 0 0 0 0 0 0 127 0" result="hardAlpha"/>
<feOffset dy="0.3"/>
<feComposite in2="hardAlpha" operator="out"/>
<feColorMatrix type="matrix" values="0 0 0 0 0.831373 0 0 0 0 0.14902 0 0 0 0 0.14902 0 0 0 0.5 0"/>
<feBlend mode="normal" in2="BackgroundImageFix" result="effect1_dropShadow_1_1270"/>
<feBlend mode="normal" in="SourceGraphic" in2="effect1_dropShadow_1_1270" result="shape"/>
</filter>
<linearGradient id="paint0_linear_1_1270" x1="19.5562" y1="5.75873" x2="8.11224" y2="25.6535" gradientUnits="userSpaceOnUse">
<stop stop-color="#FF7575"/>
<stop offset="1" stop-color="#C91212"/>
</linearGradient>
<linearGradient id="paint1_linear_1_1270" x1="24.6011" y1="12.0577" x2="16.6011" y2="34.0577" gradientUnits="userSpaceOnUse">
<stop stop-color="#FFFDFA"/>
<stop offset="0.874959" stop-color="#FFB7B7"/>
</linearGradient>
</defs>
</svg>
