<svg width="8" height="8" viewBox="0 0 8 8" fill="none" xmlns="http://www.w3.org/2000/svg">
<path d="M3.9375 4.44037C3.5894 4.44037 3.25556 4.57865 3.00942 4.82479C2.76328 5.07093 2.625 5.40477 2.625 5.75287C2.625 6.10097 2.76328 6.43481 3.00942 6.68095C3.25556 6.92709 3.5894 7.06537 3.9375 7.06537C4.2856 7.06537 4.61944 6.92709 4.86558 6.68095C5.11172 6.43481 5.25 6.10097 5.25 5.75287C5.25 5.40477 5.11172 5.07093 4.86558 4.82479C4.61944 4.57865 4.2856 4.44037 3.9375 4.44037ZM3.375 5.75287C3.375 5.60368 3.43426 5.46061 3.53975 5.35512C3.64524 5.24963 3.78832 5.19037 3.9375 5.19037C4.08668 5.19037 4.22976 5.24963 4.33525 5.35512C4.44074 5.46061 4.5 5.60368 4.5 5.75287C4.5 5.90205 4.44074 6.04513 4.33525 6.15062C4.22976 6.25611 4.08668 6.31537 3.9375 6.31537C3.78832 6.31537 3.64524 6.25611 3.53975 6.15062C3.43426 6.04513 3.375 5.90205 3.375 5.75287Z" fill="#F8F8F8"/>
<path d="M6.00975 1.67137L4.81763 0L0.43425 3.50175L0.19125 3.49912V3.50287H0V8.00287H7.875V3.50287H7.51425L6.7965 1.40325L6.00975 1.67137ZM6.72187 3.50287H2.96138L5.76225 2.54812L6.333 2.3655L6.72187 3.50287ZM5.26875 1.92412L2.3775 2.90962L4.66725 1.08037L5.26875 1.92412ZM0.75 6.56625V4.93875C0.908211 4.88269 1.05192 4.79202 1.17064 4.67336C1.28936 4.55471 1.3801 4.41105 1.43625 4.25287H6.43875C6.49488 4.41111 6.58561 4.55483 6.70433 4.67355C6.82305 4.79227 6.96676 4.883 7.125 4.93912V6.56662C6.96676 6.62275 6.82305 6.71348 6.70433 6.8322C6.58561 6.95092 6.49488 7.09464 6.43875 7.25287H1.437C1.38082 7.0945 1.28999 6.95068 1.17113 6.83189C1.05228 6.7131 0.9084 6.62234 0.75 6.56625Z" fill="#F8F8F8"/>
</svg>
