<svg width="10" height="12" viewBox="0 0 10 12" fill="none" xmlns="http://www.w3.org/2000/svg">
<path d="M0.769231 0.8C0.565218 0.8 0.369561 0.884285 0.225302 1.03431C0.0810437 1.18434 0 1.38783 0 1.6V2.4C0 2.61217 0.0810437 2.81566 0.225302 2.96569C0.369561 3.11571 0.565218 3.2 0.769231 3.2H1.15385V10.4C1.15385 10.8243 1.31593 11.2313 1.60445 11.5314C1.89297 11.8314 2.28428 12 2.69231 12H7.30769C7.71572 12 8.10703 11.8314 8.39555 11.5314C8.68407 11.2313 8.84615 10.8243 8.84615 10.4V3.2H9.23077C9.43478 3.2 9.63044 3.11571 9.7747 2.96569C9.91896 2.81566 10 2.61217 10 2.4V1.6C10 1.38783 9.91896 1.18434 9.7747 1.03431C9.63044 0.884285 9.43478 0.8 9.23077 0.8H6.53846C6.53846 0.587827 6.45742 0.384344 6.31316 0.234315C6.1689 0.0842855 5.97324 0 5.76923 0L4.23077 0C4.02676 0 3.8311 0.0842855 3.68684 0.234315C3.54258 0.384344 3.46154 0.587827 3.46154 0.8H0.769231ZM3.07692 4C3.17893 4 3.27676 4.04214 3.34889 4.11716C3.42102 4.19217 3.46154 4.29391 3.46154 4.4V10C3.46154 10.1061 3.42102 10.2078 3.34889 10.2828C3.27676 10.3579 3.17893 10.4 3.07692 10.4C2.97492 10.4 2.87709 10.3579 2.80496 10.2828C2.73283 10.2078 2.69231 10.1061 2.69231 10V4.4C2.69231 4.29391 2.73283 4.19217 2.80496 4.11716C2.87709 4.04214 2.97492 4 3.07692 4ZM5 4C5.10201 4 5.19984 4.04214 5.27196 4.11716C5.34409 4.19217 5.38462 4.29391 5.38462 4.4V10C5.38462 10.1061 5.34409 10.2078 5.27196 10.2828C5.19984 10.3579 5.10201 10.4 5 10.4C4.89799 10.4 4.80017 10.3579 4.72804 10.2828C4.65591 10.2078 4.61538 10.1061 4.61538 10V4.4C4.61538 4.29391 4.65591 4.19217 4.72804 4.11716C4.80017 4.04214 4.89799 4 5 4ZM7.30769 4.4V10C7.30769 10.1061 7.26717 10.2078 7.19504 10.2828C7.12291 10.3579 7.02508 10.4 6.92308 10.4C6.82107 10.4 6.72324 10.3579 6.65111 10.2828C6.57898 10.2078 6.53846 10.1061 6.53846 10V4.4C6.53846 4.29391 6.57898 4.19217 6.65111 4.11716C6.72324 4.04214 6.82107 4 6.92308 4C7.02508 4 7.12291 4.04214 7.19504 4.11716C7.26717 4.19217 7.30769 4.29391 7.30769 4.4Z" fill="#863AFF"/>
</svg>
