<svg width="10" height="10" viewBox="0 0 10 10" fill="none" xmlns="http://www.w3.org/2000/svg">
<path d="M5 10C4.30555 10 3.65518 9.86815 3.04889 9.60444C2.44259 9.34074 1.91481 8.98426 1.46556 8.535C1.0163 8.08574 0.659815 7.55796 0.396111 6.95167C0.132407 6.34537 0.00037037 5.69482 0 5C0 4.30556 0.132037 3.65519 0.396111 3.04889C0.660185 2.44259 1.01648 1.91481 1.465 1.46556C1.91426 1.0163 2.44204 0.659815 3.04833 0.396111C3.65463 0.132407 4.30518 0.00037037 5 0C5.75926 0 6.47926 0.162037 7.16 0.486111C7.84074 0.810185 8.41704 1.26852 8.88889 1.86111V1.11111C8.88889 0.953704 8.94222 0.821852 9.04889 0.715556C9.15555 0.609259 9.28741 0.555926 9.44444 0.555556C9.60185 0.555556 9.73389 0.608889 9.84055 0.715556C9.94722 0.822222 10.0004 0.954074 10 1.11111V3.33333C10 3.49074 9.94666 3.62278 9.84 3.72944C9.73333 3.83611 9.60148 3.88926 9.44444 3.88889H7.22222C7.06481 3.88889 6.93296 3.83556 6.82667 3.72889C6.72037 3.62222 6.66704 3.49037 6.66667 3.33333C6.66667 3.17593 6.72 3.04407 6.82667 2.93778C6.93333 2.83148 7.06518 2.77815 7.22222 2.77778H8.19444C7.81481 2.25926 7.34722 1.85185 6.79167 1.55556C6.23611 1.25926 5.63889 1.11111 5 1.11111C3.91667 1.11111 2.99778 1.48852 2.24333 2.24333C1.48889 2.99815 1.11148 3.91704 1.11111 5C1.11111 6.08333 1.48852 7.00241 2.24333 7.75722C2.99815 8.51204 3.91704 8.88926 5 8.88889C5.87963 8.88889 6.66667 8.625 7.36111 8.09722C8.05555 7.56945 8.51389 6.88889 8.73611 6.05556C8.78241 5.90741 8.86574 5.7963 8.98611 5.72222C9.10648 5.64815 9.24074 5.62037 9.38889 5.63889C9.54629 5.65741 9.6713 5.72444 9.76389 5.84C9.85648 5.95556 9.88426 6.08296 9.84722 6.22222C9.5787 7.32407 8.99537 8.22926 8.09722 8.93778C7.19907 9.6463 6.16667 10.0004 5 10ZM5.55555 4.77778L6.94444 6.16667C7.0463 6.26852 7.09722 6.39815 7.09722 6.55556C7.09722 6.71296 7.0463 6.84259 6.94444 6.94444C6.84259 7.0463 6.71296 7.09722 6.55555 7.09722C6.39815 7.09722 6.26852 7.0463 6.16667 6.94444L4.61111 5.38889C4.55555 5.33333 4.51389 5.27093 4.48611 5.20167C4.45833 5.13241 4.44444 5.06056 4.44444 4.98611V2.77778C4.44444 2.62037 4.49778 2.48852 4.60444 2.38222C4.71111 2.27593 4.84296 2.22259 5 2.22222C5.15741 2.22222 5.28944 2.27556 5.39611 2.38222C5.50278 2.48889 5.55592 2.62074 5.55555 2.77778V4.77778Z" fill="#863AFF"/>
</svg>
