<svg viewBox="0 0 24 24" fill="none" xmlns="http://www.w3.org/2000/svg"><g id="SVGRepo_bgCarrier" stroke-width="0"></g><g id="SVGRepo_tracerCarrier" stroke-linecap="round" stroke-linejoin="round"></g><g id="SVGRepo_iconCarrier"> <path d="M9.52844 13.782C9.77949 11.6442 10.3129 10.0455 11.873 10.0455C13.4331 10.0455 14.3852 11.2321 14.3852 13.2429C14.3852 15.2537 13.5186 18.5914 12.7945 20.6378" stroke="#ffffff" stroke-width="1.36423" stroke-linecap="round"></path> <path d="M11.9685 12.9446C11.827 14.7257 11.3316 18.5498 10.4823 19.5972" stroke="#ffffff" stroke-width="1.36423" stroke-linecap="round"></path> <path fill-rule="evenodd" clip-rule="evenodd" d="M5.12592 18.9907C5.46505 19.3118 5.82676 19.6092 6.20842 19.8805C6.3087 19.6818 6.40785 19.4751 6.50469 19.2629C7.01745 18.139 7.50632 16.7685 7.78622 15.402C7.86181 15.0329 7.62391 14.6724 7.25485 14.5968C6.88579 14.5213 6.52533 14.7592 6.44974 15.1282C6.19442 16.3747 5.7426 17.6466 5.26353 18.6966C5.21752 18.7975 5.17159 18.8955 5.12592 18.9907Z" fill="#ffffff"></path> <path fill-rule="evenodd" clip-rule="evenodd" d="M6.90918 20.3354C7.29946 20.5662 7.70687 20.7711 8.12903 20.9478C8.27973 20.6231 8.43106 20.2744 8.57856 19.918C9.06483 18.7432 9.52512 17.447 9.80209 16.5708C9.91564 16.2116 9.71649 15.8283 9.35729 15.7148C8.99809 15.6012 8.61485 15.8004 8.50131 16.1596C8.23536 17.0009 7.78833 18.2601 7.31804 19.3963C7.18112 19.7271 7.04356 20.0442 6.90918 20.3354Z" fill="#ffffff"></path> <path fill-rule="evenodd" clip-rule="evenodd" d="M3.54584 17.0685C3.82113 17.5045 4.12933 17.9176 4.46695 18.3043C4.96213 17.3178 5.39149 16.2668 5.51279 15.4477C5.56798 15.0751 5.31062 14.7282 4.93796 14.6731C4.56531 14.6179 4.21847 14.8752 4.16328 15.2479C4.09288 15.7233 3.86302 16.3687 3.54584 17.0685Z" fill="#ffffff"></path> <path fill-rule="evenodd" clip-rule="evenodd" d="M15.7172 20.9852C15.8137 20.642 15.9133 20.2944 16.0139 19.9433L16.0139 19.9433L16.0139 19.9432C16.1658 19.413 16.32 18.8748 16.4695 18.3316C16.9933 16.4285 17.457 14.4703 17.457 12.7699C17.457 11.052 16.9837 9.51827 16.0382 8.40188C15.0816 7.27242 13.6916 6.63087 12.0001 6.63087C10.2913 6.63087 8.90442 7.33127 7.95699 8.47646C7.02036 9.6086 6.54321 11.1359 6.54321 12.7699C6.54321 13.1466 6.84861 13.452 7.22533 13.452C7.60205 13.452 7.90744 13.1466 7.90744 12.7699C7.90744 11.3901 8.3108 10.189 9.00813 9.34608C9.69465 8.51625 10.6952 7.99509 12.0001 7.99509C13.3224 7.99509 14.3198 8.4837 14.9972 9.28355C15.6856 10.0965 16.0928 11.2912 16.0928 12.7699C16.0928 14.266 15.6787 16.0635 15.1542 17.9696C15.0143 18.4778 14.8662 18.9947 14.7178 19.513C14.5299 20.1686 14.3415 20.8263 14.1683 21.4713C14.7021 21.3509 15.2197 21.1876 15.7172 20.9852Z" fill="#ffffff"></path> <path fill-rule="evenodd" clip-rule="evenodd" d="M18.7882 19.0123C19.3688 17.2737 19.8048 15.3433 19.8048 13.4598C19.8048 10.6132 19.1919 8.25076 17.8716 6.5872C16.5308 4.89771 14.5365 4.02433 12.0001 4.02433C9.43626 4.02433 7.4904 5.01782 6.20559 6.70938C4.94072 8.3747 4.36731 10.6475 4.36731 13.1449C4.36731 13.5216 4.6727 13.827 5.04942 13.827C5.42614 13.827 5.73154 13.5216 5.73154 13.1449C5.73154 10.8324 6.2655 8.88598 7.29198 7.53454C8.29852 6.20934 9.828 5.38855 12.0001 5.38855C14.1996 5.38855 15.7666 6.12935 16.8031 7.43528C17.8601 8.76713 18.4406 10.7813 18.4406 13.4598C18.4406 15.8465 17.6551 18.3895 16.7757 20.4797C17.5079 20.0752 18.1836 19.5811 18.7882 19.0123Z" fill="#ffffff"></path> <path d="M2.98769 14.4844C2.55114 12.9601 2.50834 11.35 2.86329 9.80462C3.21825 8.25928 3.95936 6.82921 5.01731 5.64819" stroke="#ffffff" stroke-width="1.36423" stroke-linecap="round"></path> <path d="M7.43616 3.71466C8.95012 2.87086 10.6684 2.46328 12.4 2.53722C14.1317 2.61116 15.8089 3.16371 17.2455 4.1335" stroke="#ffffff" stroke-width="1.36423" stroke-linecap="round"></path> <path d="M19.5546 6.35229C20.463 7.58862 21.0541 9.02899 21.276 10.547C21.498 12.0651 21.344 13.6144 20.8275 15.059" stroke="#ffffff" stroke-width="1.36423" stroke-linecap="round"></path> </g></svg>